<svg width="16" height="15" viewBox="0 0 16 15" fill="none" xmlns="http://www.w3.org/2000/svg">
<path d="M7.07668 13.7801C7.41827 14.6014 8.58173 14.6014 8.92332 13.7801L10.146 10.8405C10.29 10.4942 10.6156 10.2577 10.9894 10.2277L14.1629 9.97329C15.0496 9.9022 15.4091 8.7957 14.7336 8.21703L12.3157 6.14584C12.0309 5.90189 11.9065 5.51911 11.9935 5.15435L12.7322 2.05752C12.9386 1.1923 11.9973 0.508438 11.2382 0.972094L8.52125 2.63162C8.20124 2.82709 7.79876 2.82709 7.47875 2.63162L4.76175 0.972093C4.00266 0.508437 3.0614 1.1923 3.26779 2.05752L4.0065 5.15435C4.09351 5.51911 3.96914 5.90189 3.68435 6.14584L1.26645 8.21703C0.590909 8.7957 0.950437 9.9022 1.83709 9.97329L5.01063 10.2277C5.38442 10.2577 5.71003 10.4942 5.85403 10.8405L7.07668 13.7801Z" fill="#F7971E"/>
</svg>
