<svg width="552" height="446" viewBox="0 0 552 446" fill="none" xmlns="http://www.w3.org/2000/svg">
<mask id="mask0_1_693" style="mask-type:luminance" maskUnits="userSpaceOnUse" x="0" y="0" width="552" height="446">
<path d="M489.638 445.865H67.2361C30.1041 445.865 0 415.771 0 378.638V67.2381C0 30.105 30.1041 0 67.2361 0H483.776C520.907 0 551.012 30.105 551.012 67.2381V384.501C551 418.394 523.53 445.865 489.638 445.865Z" fill="white"/>
</mask>
<g mask="url(#mask0_1_693)">
<path d="M464.685 211.062C455.117 194.628 458.788 160.036 458.788 160.036L456.632 162.006C466.224 136.924 458.194 126.796 458.194 126.796C434.523 91.5623 399.092 114.849 399.092 114.849C399.092 114.849 373.102 118.998 382.718 150.071C383.3 151.959 383.545 154.255 383.615 156.656C383.533 156.936 379.524 171.668 378.091 174.43C377.053 176.435 382.263 179.197 385.282 180.595C392.018 210.001 393.533 208.964 393.533 208.964C405.433 209.535 414.908 207.589 422.577 204.139C423.637 209.675 424.721 215.619 424.721 215.619C427.274 235.864 398.696 248.894 398.696 248.894L452.949 269.384L506.852 234.99C506.84 235.001 476.34 231.085 464.685 211.062Z" fill="#F4C0A4"/>
<path d="M452.996 270.048L397.169 248.964L398.44 248.381C398.719 248.253 426.609 235.293 424.127 215.712C424.127 215.712 423.136 210.281 422.134 204.989C413.964 208.521 404.395 210.059 393.696 209.581L393.603 209.64L393.253 209.523C391.494 208.836 387.682 193.719 384.769 181.027C380.468 178.999 378.009 177.192 377.485 175.654C377.31 175.141 377.333 174.628 377.566 174.185C378.65 172.087 381.494 162.18 383.021 156.598C382.939 153.952 382.648 151.877 382.147 150.257C378.906 139.779 379.303 131.178 383.335 124.686C388.475 116.422 397.647 114.523 398.859 114.301C401.05 112.926 435.583 92.1217 458.66 126.469C458.963 126.842 466.282 136.493 457.984 159.954L459.499 158.567L459.336 160.094C459.301 160.444 455.793 194.686 465.163 210.759C476.55 230.316 506.584 234.372 506.887 234.418L508.484 234.628L452.996 270.048ZM400.141 248.836L452.867 268.754L505.232 235.339C498.868 234.209 474.347 228.812 464.172 211.353C455.641 196.703 457.459 168.416 458.054 161.481L455.198 164.092L456.084 161.784C465.419 137.378 457.809 127.238 457.739 127.145C448.031 112.705 435.304 106.329 419.873 108.171C408.323 109.546 399.5 115.269 399.407 115.327L399.174 115.42C399.081 115.432 389.431 117.075 384.326 125.304C380.48 131.492 380.13 139.768 383.265 149.896C383.801 151.632 384.105 153.835 384.186 156.632V156.714L384.163 156.796C383.732 158.357 379.99 171.994 378.603 174.686C378.545 174.791 378.487 174.966 378.592 175.246C379 176.446 381.529 178.206 385.526 180.059L385.783 180.176L385.841 180.455C391.272 204.197 393.277 207.833 393.685 208.381C404.512 208.882 414.15 207.274 422.32 203.602L422.996 203.299L423.136 204.022C424.197 209.558 425.281 215.514 425.281 215.514C427.565 233.544 405.619 246.015 400.141 248.836Z" fill="#363C50"/>
<path d="M193.375 391.692L374.722 375.212L480.081 404.641L480.559 412.135L299.223 428.615L193.865 399.186L193.375 391.692Z" fill="white"/>
<path d="M299.223 429.198C299.165 429.198 299.118 429.186 299.072 429.175L193.713 399.746C193.48 399.676 193.305 399.466 193.293 399.221L192.804 391.727C192.781 391.412 193.014 391.132 193.328 391.109L374.676 374.629C374.746 374.617 374.816 374.629 374.886 374.652L480.244 404.081C480.477 404.151 480.652 404.361 480.664 404.606L481.153 412.1C481.177 412.415 480.944 412.694 480.629 412.718L299.281 429.198C299.258 429.198 299.235 429.198 299.223 429.198ZM194.424 398.743L299.281 428.032L479.953 411.61L479.533 405.095L374.676 375.806L194.004 392.228L194.424 398.743Z" fill="#405391"/>
<path d="M198.293 392.38L375.969 381.96L348.802 270.514L175.124 278.614L198.293 392.38Z" fill="white"/>
<path d="M198.293 392.962C198.014 392.962 197.781 392.764 197.722 392.496L174.553 278.731C174.518 278.568 174.564 278.393 174.669 278.253C174.774 278.113 174.937 278.032 175.1 278.032L348.767 269.931C349.047 269.908 349.292 270.106 349.362 270.374L376.529 381.82C376.576 381.983 376.529 382.17 376.436 382.309C376.331 382.449 376.179 382.531 376.004 382.543L198.328 392.962C198.317 392.962 198.305 392.962 198.293 392.962ZM175.835 279.162L198.76 391.773L375.235 381.424L348.348 271.12L175.835 279.162Z" fill="#405391"/>
<path d="M269.713 278.358C269.993 279.582 269.375 280.759 268.338 280.992C267.301 281.225 266.229 280.433 265.949 279.209C265.669 277.985 266.287 276.808 267.324 276.575C268.361 276.342 269.434 277.134 269.713 278.358Z" fill="#405391"/>
<path d="M175.124 278.614L348.802 270.514L175.124 278.614L198.293 392.38L193.387 391.89L171.837 282.064L175.124 278.614Z" fill="white"/>
<path d="M198.293 392.962C198.27 392.962 198.258 392.962 198.235 392.962L193.328 392.473C193.072 392.449 192.862 392.251 192.816 392.007L171.266 282.181C171.231 281.994 171.289 281.808 171.418 281.668L174.704 278.218C174.797 278.113 174.937 278.043 175.077 278.032L348.744 269.931C349.094 269.908 349.338 270.165 349.35 270.491C349.35 270.502 349.35 270.514 349.35 270.514C349.35 270.829 349.105 271.085 348.791 271.097L175.8 279.162L198.829 392.263C198.864 392.45 198.818 392.636 198.69 392.776C198.62 392.892 198.456 392.962 198.293 392.962ZM193.876 391.354L197.559 391.727L174.774 279.827L172.466 282.251L193.876 391.354Z" fill="#405391"/>
<path d="M188.573 287.682L340.458 280.514L360.678 368.592L208.188 382.275L188.573 287.682Z" fill="#F9901C"/>
<path d="M207.722 382.904L207.617 382.391L187.851 287.134L188.527 287.099L340.9 279.92L361.389 369.116L207.722 382.904ZM189.284 288.23L208.666 381.645L359.968 368.067L340.003 281.12L189.284 288.23Z" fill="#405391"/>
<path d="M193.375 391.692L298.734 421.121L480.081 404.641L374.722 375.212L193.375 391.692Z" fill="white"/>
<path d="M298.734 421.704C298.675 421.704 298.629 421.692 298.582 421.68L193.224 392.251C192.955 392.181 192.769 391.913 192.804 391.634C192.839 391.354 193.049 391.132 193.328 391.109L374.676 374.629C374.746 374.617 374.816 374.629 374.886 374.652L480.244 404.081C480.512 404.151 480.699 404.419 480.664 404.699C480.629 404.979 480.419 405.2 480.139 405.223L298.792 421.704C298.769 421.704 298.745 421.704 298.734 421.704ZM196.592 391.995L298.78 420.538L476.853 404.349L374.664 375.806L196.592 391.995Z" fill="#405391"/>
<path d="M271.613 408.709L219.097 394.035L374.291 379.932L425.304 394.186L271.613 408.709Z" fill="white"/>
<path d="M271.613 409.291C271.555 409.291 271.508 409.28 271.462 409.268L218.946 394.606C218.677 394.536 218.491 394.268 218.526 393.988C218.561 393.708 218.771 393.487 219.05 393.464L374.245 379.361C374.315 379.349 374.384 379.361 374.454 379.384L425.467 393.627C425.735 393.697 425.922 393.965 425.887 394.245C425.863 394.524 425.642 394.746 425.362 394.769L271.671 409.291C271.648 409.291 271.625 409.291 271.613 409.291ZM222.314 394.338L271.66 408.126L422.111 393.907L374.233 380.538L222.314 394.338Z" fill="#405391"/>
<path d="M385.978 382.629L230.233 396.531L230.336 397.692L386.082 383.79L385.978 382.629Z" fill="#405391"/>
<path d="M399.067 386.322L243.321 400.224L243.425 401.385L399.171 387.483L399.067 386.322Z" fill="#405391"/>
<path d="M412.143 390.005L256.397 403.907L256.501 405.068L412.246 391.166L412.143 390.005Z" fill="#405391"/>
<path d="M237.996 391.959L237.684 393.082L289.131 407.388L289.444 406.265L237.996 391.959Z" fill="#405391"/>
<path d="M306.729 405.911C306.682 405.911 306.624 405.899 306.577 405.888L255.122 391.575C254.807 391.494 254.632 391.167 254.714 390.853C254.795 390.538 255.122 390.363 255.436 390.445L306.892 404.757C307.207 404.839 307.381 405.165 307.3 405.48C307.218 405.736 306.985 405.911 306.729 405.911Z" fill="#405391"/>
<path d="M321.67 404.454C321.624 404.454 321.565 404.443 321.519 404.431L270.063 390.119C269.748 390.037 269.574 389.711 269.655 389.396C269.737 389.081 270.063 388.906 270.378 388.988L321.833 403.3C322.148 403.382 322.323 403.708 322.241 404.023C322.16 404.279 321.927 404.454 321.67 404.454Z" fill="#405391"/>
<path d="M336.623 402.997C336.577 402.997 336.518 402.986 336.472 402.974L285.016 388.662C284.701 388.58 284.527 388.254 284.608 387.939C284.69 387.624 285.016 387.45 285.331 387.531L336.786 401.844C337.101 401.925 337.276 402.252 337.194 402.566C337.113 402.823 336.88 402.997 336.623 402.997Z" fill="#405391"/>
<path d="M351.565 401.54C351.518 401.54 351.46 401.529 351.413 401.517L299.957 387.205C299.643 387.123 299.468 386.797 299.55 386.482C299.631 386.167 299.957 385.993 300.272 386.074L351.728 400.387C352.042 400.468 352.217 400.795 352.136 401.109C352.054 401.366 351.821 401.54 351.565 401.54Z" fill="#405391"/>
<path d="M366.518 400.084C366.471 400.084 366.413 400.072 366.366 400.06L315.586 385.934C315.272 385.853 315.097 385.527 315.179 385.212C315.26 384.897 315.586 384.722 315.901 384.804L366.681 398.93C366.995 399.011 367.17 399.338 367.089 399.652C367.007 399.909 366.774 400.084 366.518 400.084Z" fill="#405391"/>
<path d="M381.913 398.755C381.867 398.755 381.809 398.743 381.762 398.732L330.469 384.466C330.155 384.384 329.98 384.058 330.062 383.743C330.143 383.429 330.47 383.254 330.784 383.335L382.077 397.601C382.391 397.683 382.566 398.009 382.484 398.324C382.403 398.58 382.17 398.755 381.913 398.755Z" fill="#405391"/>
<path d="M396.878 397.298C396.831 397.298 396.773 397.286 396.727 397.275L345.679 383.079C345.364 382.997 345.189 382.671 345.271 382.356C345.353 382.042 345.679 381.867 345.994 381.948L397.041 396.144C397.356 396.226 397.531 396.552 397.449 396.867C397.368 397.135 397.134 397.298 396.878 397.298Z" fill="#405391"/>
<path d="M411.808 395.841C411.761 395.841 411.703 395.83 411.656 395.818L361.145 381.774C360.83 381.692 360.655 381.366 360.737 381.051C360.818 380.736 361.145 380.561 361.459 380.643L411.971 394.687C412.286 394.769 412.46 395.095 412.379 395.41C412.297 395.666 412.064 395.841 411.808 395.841Z" fill="#405391"/>
<path d="M274.224 299.559L331.239 296.132C331.693 296.109 332.089 296.412 332.206 296.855L337.882 319.64C338.022 320.211 337.625 320.771 337.043 320.818L290.098 324.267C289.888 324.291 289.69 324.372 289.538 324.512L282.347 332.822C281.788 333.323 280.902 333.02 280.774 332.274L273.338 300.689C273.222 300.118 273.641 299.582 274.224 299.559Z" fill="white"/>
<path d="M281.694 333.638C281.531 333.638 281.368 333.615 281.205 333.556C280.681 333.37 280.284 332.915 280.191 332.368L272.767 300.817C272.674 300.351 272.79 299.897 273.07 299.547C273.35 299.197 273.758 298.988 274.201 298.964L331.215 295.538C331.95 295.503 332.602 295.992 332.777 296.703L338.453 319.489C338.558 319.92 338.476 320.386 338.208 320.748C337.952 321.109 337.544 321.342 337.089 321.389L290.132 324.838C290.063 324.85 289.981 324.873 289.923 324.932L282.778 333.195C282.452 333.498 282.079 333.638 281.694 333.638ZM331.285 296.715H331.274L274.27 300.141H274.259C274.107 300.153 274.026 300.235 273.979 300.281C273.932 300.328 273.874 300.433 273.909 300.584L281.333 332.146C281.368 332.379 281.52 332.449 281.578 332.473C281.636 332.496 281.799 332.531 281.951 332.403L289.095 324.139C289.387 323.859 289.713 323.72 290.039 323.696L336.996 320.246C337.136 320.235 337.218 320.142 337.253 320.095C337.287 320.048 337.346 319.932 337.311 319.792L331.635 297.006C331.6 296.831 331.448 296.715 331.285 296.715Z" fill="#405391"/>
<path d="M282.848 342.496L341.518 337.974L345.434 351.482L342.707 351.773L340.038 352.065L286.345 356.878L282.848 342.496Z" fill="white"/>
<path d="M286.345 357.461C286.077 357.461 285.844 357.275 285.774 357.018L282.277 342.636C282.242 342.473 282.277 342.298 282.37 342.158C282.475 342.018 282.627 341.936 282.802 341.913L341.472 337.391C341.751 337.368 341.996 337.542 342.078 337.811L345.994 351.319C346.04 351.482 346.017 351.657 345.912 351.808C345.819 351.948 345.667 352.041 345.492 352.065L340.096 352.647L286.391 357.473C286.38 357.461 286.356 357.461 286.345 357.461ZM283.571 343.032L286.788 356.261L339.98 351.482L344.677 350.981L341.087 338.591L283.571 343.032Z" fill="#405391"/>
<path d="M293.035 307.239C292.732 307.239 292.475 307.006 292.452 306.703C292.428 306.377 292.673 306.097 292.988 306.085L301.612 305.456C301.927 305.421 302.218 305.678 302.23 305.992C302.253 306.319 302.009 306.598 301.694 306.61L293.07 307.239C293.058 307.239 293.046 307.239 293.035 307.239Z" fill="#405391"/>
<path d="M293.303 311.039C293 311.039 292.743 310.794 292.72 310.491C292.708 310.165 292.953 309.897 293.268 309.873L325.33 308.207C325.644 308.183 325.924 308.44 325.947 308.755C325.959 309.081 325.714 309.349 325.4 309.372L293.338 311.039C293.326 311.039 293.314 311.039 293.303 311.039Z" fill="#405391"/>
<path d="M293.815 315.037C293.512 315.037 293.256 314.792 293.233 314.489C293.221 314.163 293.466 313.894 293.78 313.871L325.843 312.205C326.157 312.193 326.437 312.438 326.46 312.752C326.472 313.079 326.227 313.347 325.913 313.37L293.85 315.037C293.839 315.037 293.827 315.037 293.815 315.037Z" fill="#405391"/>
<path d="M288.128 310.491C288.734 313.16 287.382 315.748 285.109 316.26C282.837 316.785 280.494 315.037 279.888 312.368C279.282 309.699 280.634 307.111 282.907 306.598C285.179 306.085 287.522 307.822 288.128 310.491Z" fill="white"/>
<path d="M284.293 316.936C283.326 316.936 282.37 316.61 281.531 315.981C280.436 315.165 279.655 313.929 279.329 312.507C278.653 309.535 280.203 306.633 282.79 306.039C285.377 305.444 288.035 307.391 288.711 310.363C289.387 313.335 287.836 316.237 285.249 316.831C284.923 316.901 284.608 316.936 284.293 316.936ZM283.722 307.099C283.501 307.099 283.268 307.123 283.035 307.181C281.077 307.624 279.923 309.908 280.459 312.251C280.727 313.405 281.345 314.395 282.231 315.048C283.081 315.677 284.06 315.911 284.993 315.701C286.951 315.258 288.105 312.974 287.568 310.631C287.091 308.545 285.447 307.099 283.722 307.099Z" fill="#405391"/>
<path d="M505.057 244.85C505.057 244.85 502.691 232.029 501.409 276.843C500.22 318.789 499.754 362.811 499.754 362.811C499.754 362.811 477.028 363.475 452.704 374.093L436.959 380.631C436.959 380.631 477.832 403.265 506.922 412.31C533.704 420.631 536.222 400.177 533.028 350.48C533.04 350.48 517.796 248.393 505.057 244.85Z" fill="#F4C0A4"/>
<path d="M517.05 414.676C514.066 414.676 510.651 414.07 506.759 412.858C477.948 403.906 437.098 381.366 436.691 381.132C436.492 381.028 436.376 380.818 436.388 380.585C436.399 380.363 436.539 380.165 436.749 380.083L452.494 373.545C474.533 363.93 495.524 362.438 499.183 362.24C499.241 357.018 499.731 315.771 500.838 276.82C501.805 242.752 503.321 242.635 504.23 242.565C504.463 242.542 505.15 242.495 505.57 244.407C518.437 249.64 533.005 346.237 533.623 350.386C535.837 384.746 535.313 404.699 526.269 411.82C523.833 413.732 520.791 414.676 517.05 414.676ZM438.311 380.701C444.93 384.303 481.002 403.638 507.097 411.75C515.476 414.349 521.502 414.081 525.523 410.911C534.124 404.14 534.579 383.638 532.446 350.515C527.201 315.386 514.684 248.136 504.894 245.421C504.684 245.363 504.521 245.188 504.474 244.966C504.428 244.687 504.346 244.395 504.265 244.15C503.729 245.759 502.691 252.122 501.98 276.866C500.803 318.323 500.325 362.379 500.325 362.822C500.325 363.137 500.069 363.393 499.754 363.393C499.533 363.405 476.853 364.186 452.926 374.629L438.311 380.701Z" fill="#405391"/>
<path d="M397.566 103.963C397.566 103.963 363.417 122.18 382.962 140.467L406.167 117.273L397.566 103.963Z" fill="#405391"/>
<path d="M448.613 191.236C448.613 191.236 456.294 191.038 460.886 201.435C460.886 201.435 455.851 189.628 464.639 179.861L448.613 191.236Z" fill="#363C50"/>
<path d="M397.566 103.963C397.566 103.963 355.795 144.873 380.83 133.404C433.136 109.453 430.455 169.803 430.455 169.803C430.455 169.803 437.658 163.241 435.001 170.106L448.625 191.225C448.625 191.225 477.75 180.211 479.3 143.532C479.825 131.143 467.634 74.3361 397.566 103.963Z" fill="#363C50"/>
<path d="M415.491 128.229C416.271 134.488 415.491 159.488 426.539 161.318C437.588 163.148 424.64 129.931 424.64 129.931L415.491 128.229Z" fill="#363C50"/>
<path d="M380.41 262.565C367.182 322.018 361.063 383.44 361.063 383.44C361.063 383.44 334.933 376.028 310.144 372.018L283.058 364.746C282.184 364.349 272.79 360.014 269.748 357.007C266.555 353.836 264.795 362.554 269.818 366.529C271.333 367.729 272.511 368.79 273.466 369.711L266.94 370.725C265.821 370.899 264.772 371.389 263.933 372.158C259.387 376.284 244.563 389.967 247.371 390.818C248.071 391.028 248.851 391.039 249.702 390.911C244.632 395.095 244.236 399.466 245.646 399.606C247.768 399.827 250.448 398.3 253.117 396.144C250.775 398.86 247.861 404.851 251.113 404.699C255.471 404.501 259.131 401.109 262.616 395.375C262.616 395.375 261.753 396.867 262.138 396.517L259.551 400.701C259.551 400.701 264.818 405.328 268.653 407.485C272.312 409.536 274.445 401.983 269.271 398.872C269.271 398.872 271.135 397.007 272.639 393.032C272.639 393.032 287.172 400.06 294.596 394.489L299.456 394.955C312.148 402.904 376.61 431.879 385.445 431.214C405.503 429.723 409.314 390.282 419.01 304.081C419.01 304.104 386.331 235.91 380.41 262.565Z" fill="#F4C0A4"/>
<path d="M385.142 431.832C374.886 431.832 312.078 403.499 299.258 395.538L294.759 395.107C287.86 400.025 275.751 395.084 272.953 393.837C271.916 396.377 270.762 397.997 270.145 398.767C273.28 401.051 273.431 404.862 272.254 406.89C271.38 408.405 269.842 408.837 268.361 408.009C264.515 405.853 259.376 401.342 259.154 401.156C259.131 401.144 259.119 401.121 259.108 401.109C256.567 403.813 253.956 405.165 251.136 405.293C249.947 405.34 249.481 404.722 249.294 404.338C248.665 403.032 249.562 400.631 250.74 398.568C248.735 399.792 247.01 400.34 245.588 400.189C245.052 400.13 244.644 399.757 244.458 399.163C243.968 397.554 245.11 394.478 248.106 391.552C247.779 391.517 247.476 391.459 247.185 391.377C246.8 391.261 246.532 390.981 246.451 390.608C246.031 388.732 251.777 382.38 263.525 371.727C264.446 370.888 265.588 370.34 266.835 370.153L272.184 369.326C271.333 368.545 270.424 367.776 269.445 366.995C266.543 364.699 265.728 360.934 266.194 358.405C266.45 357.03 267.079 356.097 267.919 355.829C268.42 355.666 269.212 355.678 270.145 356.599C273.163 359.582 282.872 364.034 283.291 364.221L310.284 371.459C332.591 375.06 356.296 381.517 360.55 382.694C361.273 375.748 367.508 317.892 379.839 262.449C380.76 258.323 382.403 256.109 384.722 255.84C395.736 254.605 418.567 301.855 419.535 303.871C419.581 303.964 419.605 304.081 419.593 304.186L418.731 311.82C409.593 393.195 405.421 430.34 385.491 431.832C385.375 431.832 385.27 431.832 385.142 431.832ZM294.608 393.93C294.631 393.93 294.643 393.93 294.666 393.93L299.526 394.396C299.619 394.408 299.701 394.431 299.783 394.478C311.95 402.1 375.305 430.667 385.107 430.667C385.212 430.667 385.317 430.667 385.41 430.655C404.384 429.245 408.521 392.403 417.577 311.68L418.416 304.209C411.878 290.596 393.347 256.004 384.862 256.994C383.079 257.192 381.774 259.116 380.981 262.705C367.916 321.447 361.704 382.892 361.646 383.51C361.634 383.685 361.541 383.836 361.389 383.93C361.25 384.023 361.063 384.058 360.9 384.011C360.644 383.941 334.525 376.564 310.039 372.601L282.895 365.317C281.753 364.804 272.441 360.503 269.329 357.426C269.096 357.193 268.641 356.82 268.268 356.937C267.872 357.065 267.499 357.717 267.336 358.615C266.916 360.876 267.755 364.174 270.168 366.074C271.52 367.146 272.72 368.195 273.851 369.291C274.014 369.442 274.072 369.676 274.002 369.885C273.932 370.095 273.758 370.247 273.536 370.282L267.01 371.296C265.996 371.459 265.063 371.902 264.306 372.578C252.791 383.009 247.616 389 247.581 390.27C248.152 390.433 248.828 390.445 249.597 390.328C249.854 390.293 250.11 390.433 250.215 390.666C250.32 390.911 250.262 391.191 250.052 391.354C246.008 394.687 245.273 397.881 245.565 398.813C245.565 398.837 245.623 399.011 245.693 399.011C247.418 399.198 249.784 398.067 252.733 395.678C252.966 395.492 253.304 395.503 253.513 395.725C253.723 395.946 253.735 396.284 253.537 396.506C251.649 398.685 249.749 402.624 250.332 403.802C250.378 403.895 250.471 404.128 251.066 404.093C254.947 403.918 258.455 401.039 262.091 395.049C262.254 394.781 262.616 394.687 262.884 394.851C263.163 395.014 263.245 395.363 263.094 395.643C262.954 395.888 262.791 396.191 262.686 396.401C262.709 396.54 262.686 396.68 262.604 396.797L260.285 400.561C261.543 401.645 265.762 405.177 268.921 406.948C270.18 407.659 270.914 406.82 271.24 406.261C272.219 404.583 271.963 401.144 268.956 399.338C268.804 399.244 268.699 399.093 268.676 398.906C268.653 398.72 268.711 398.545 268.839 398.429C268.863 398.405 270.646 396.587 272.079 392.799C272.138 392.648 272.254 392.531 272.406 392.461C272.557 392.391 272.732 392.403 272.872 392.473C273.012 392.543 287.172 399.279 294.223 393.988C294.352 393.965 294.48 393.93 294.608 393.93Z" fill="#405391"/>
<path d="M354.129 396.074L352.975 395.923C354.257 386.505 360.515 383.079 360.783 382.927L361.331 383.953C361.273 383.988 355.329 387.275 354.129 396.074Z" fill="#405391"/>
<path d="M519.346 350.165C529.684 348.452 546.373 342.741 546.385 342.682C546.385 342.682 539.986 262.041 519.637 238.16C518.6 235.934 515.185 231.33 504.265 229.722C501.025 229.244 497.843 228.649 494.789 227.997C484.114 225.701 475.419 222.507 472.937 220.934C472.937 220.934 472.948 221.027 472.972 221.178C472.913 221.143 472.844 221.108 472.785 221.073C472.785 221.073 473.275 223.23 472.506 225.747C472.436 225.969 472.366 226.19 472.272 226.423C472.237 226.516 472.191 226.621 472.144 226.715C471.981 227.076 471.806 227.449 471.585 227.81C468.252 233.311 446.143 235.526 424.045 223.847C424.045 223.847 386.086 245.374 375.969 252.845C360.445 285.922 353.779 360.62 353.779 357.146C353.779 356.202 385.41 372.776 405.969 373.673C406.085 379.536 400.934 453.58 400.934 453.58C400.934 453.58 490.326 458.138 529.928 437.077C529.928 437.077 514.323 385.084 516.152 370.573C516.409 368.86 518.903 354.407 519.346 350.165Z" fill="#2740A1"/>
<path d="M401.225 103.485C401.225 103.485 357.45 93.2755 360.201 104.546C362.963 115.816 374.28 125.653 374.28 125.653C374.28 125.653 361.378 125.327 368.149 131.877C374.921 138.427 380.585 137.938 380.585 137.938L401.225 103.485Z" fill="#363C50"/>
<path d="M422.717 204.721L422.425 203.591C422.472 203.579 426.936 202.367 434.954 195.409L435.723 196.283C427.448 203.474 422.903 204.675 422.717 204.721Z" fill="#405391"/>
<path d="M432.425 151.621L428.929 151.807L428.894 151.225C428.882 150.887 426.866 116.889 412.414 106.05C409.582 103.928 405.188 101.97 400.363 104.733C399.897 105.001 399.337 105.036 398.848 104.826C398.358 104.604 398.02 104.196 397.892 103.672C397.729 102.973 398.044 102.227 398.65 101.854C403.743 98.8118 409.232 99.2896 414.512 103.252C430.269 115.082 432.308 149.57 432.39 151.038L432.425 151.621Z" fill="#F9901C"/>
<path d="M448.301 167.367C448.975 156.897 441.243 147.876 431.03 147.218C420.817 146.56 411.991 154.514 411.316 164.984C410.642 175.454 418.374 184.475 428.587 185.133C438.8 185.792 447.626 177.837 448.301 167.367Z" fill="#F9901C"/>
<path d="M429.768 185.735C429.36 185.735 428.964 185.724 428.556 185.7C423.462 185.374 418.801 183.031 415.432 179.103C412.076 175.187 410.409 170.152 410.736 164.931C411.074 159.709 413.37 154.942 417.204 151.481C421.05 148.019 425.968 146.306 431.073 146.621C436.166 146.947 440.828 149.29 444.196 153.218C447.553 157.134 449.219 162.169 448.893 167.39C448.229 177.74 439.767 185.735 429.768 185.735ZM429.849 147.751C425.479 147.751 421.306 149.36 417.996 152.343C414.383 155.595 412.227 160.094 411.901 165.001C411.586 169.908 413.148 174.651 416.318 178.334C419.477 182.017 423.847 184.22 428.637 184.523C438.509 185.152 447.087 177.437 447.739 167.308C448.054 162.402 446.492 157.658 443.322 153.975C440.164 150.292 435.793 148.089 431.003 147.786C430.618 147.763 430.234 147.751 429.849 147.751Z" fill="#405391"/>
<path d="M442.32 166.691C441.83 174.208 435.816 179.943 428.87 179.5C421.924 179.057 416.691 172.588 417.169 165.071C417.658 157.553 423.672 151.819 430.63 152.262C437.576 152.716 442.809 159.173 442.32 166.691Z" fill="#2740A1"/>
<path d="M429.64 180.106C429.371 180.106 429.103 180.094 428.835 180.082C425.316 179.861 422.099 178.159 419.78 175.304C417.472 172.46 416.341 168.812 416.586 165.036C416.831 161.26 418.428 157.775 421.073 155.257C423.731 152.728 427.145 151.458 430.665 151.679C434.185 151.9 437.402 153.602 439.721 156.458C442.028 159.301 443.159 162.95 442.914 166.726C442.669 170.502 441.073 173.987 438.427 176.504C435.968 178.847 432.868 180.106 429.64 180.106ZM429.861 152.821C426.924 152.821 424.115 153.975 421.877 156.096C419.442 158.416 417.973 161.609 417.752 165.106C417.53 168.591 418.568 171.959 420.689 174.57C422.798 177.169 425.712 178.707 428.905 178.917C432.099 179.127 435.199 177.973 437.611 175.665C440.047 173.346 441.516 170.152 441.737 166.656C441.959 163.171 440.921 159.803 438.8 157.192C436.691 154.593 433.777 153.054 430.584 152.845C430.339 152.833 430.106 152.821 429.861 152.821Z" fill="#405391"/>
<path d="M389.139 160.712C389.151 162.227 390.107 163.45 391.272 163.439C392.438 163.427 393.37 162.192 393.358 160.677C393.347 159.161 392.391 157.938 391.225 157.949C390.06 157.961 389.128 159.196 389.139 160.712Z" fill="#363C50"/>
<path d="M399.442 152.74C397.74 150.409 395.328 149.581 393.405 148.963C391.272 148.276 389.174 147.588 388.277 148.579C387.741 149.173 387.706 150.292 388.172 150.991C388.813 151.982 390.258 151.935 391.61 152.075C396.843 152.623 399.838 155.758 400.433 154.989C400.759 154.546 399.908 153.369 399.442 152.74Z" fill="#363C50"/>
<path d="M389.547 188.544L389.501 187.379C389.559 187.379 395.06 187.099 398.591 183.486L399.43 184.302C395.561 188.253 389.792 188.532 389.547 188.544Z" fill="#363C50"/>
<path d="M399.512 105.746C388.125 92.8793 373.685 94.9539 369.524 95.8863C369.42 95.9096 369.35 95.9212 369.326 95.9212L369.175 94.7674L369.256 95.3501L369.163 94.779C373.592 93.7767 388.58 91.6322 400.386 104.977L399.512 105.746Z" fill="#363C50"/>
<path d="M468.986 122.308L470.606 105.886L471.771 106.003L470.652 117.366C471.433 116.551 472.564 115.676 474.044 115.292C476.06 114.767 478.24 115.257 480.512 116.749L479.871 117.728C477.89 116.422 476.025 115.991 474.347 116.422C471.76 117.098 470.396 119.651 470.373 119.674L468.986 122.308Z" fill="#363C50"/>
<path d="M384.944 120.525C384.944 120.525 370.317 141.19 377.776 141.155C389.046 141.096 400.188 126.446 398.148 125.688C396.097 124.919 384.944 120.525 384.944 120.525Z" fill="#363C50"/>
<path d="M253.117 396.144L258.851 384L265.052 379.081" fill="white"/>
<path d="M253.642 396.389L252.593 395.9L258.373 383.627L264.69 378.627L265.413 379.547L259.317 384.373L253.642 396.389Z" fill="#405391"/>
<path d="M255.906 382.981L249.265 390.505L250.139 391.276L256.78 383.753L255.906 382.981Z" fill="#405391"/>
<path d="M273.443 380.585L266.031 385.853L262.138 396.529" fill="white"/>
<path d="M262.686 396.727L261.59 396.331L265.483 385.655C265.518 385.538 265.599 385.445 265.693 385.375L273.105 380.118L273.781 381.074L266.52 386.226L262.686 396.727Z" fill="#405391"/>
<path d="M408.09 374.303C406.12 374.303 404.046 374.209 401.948 373.965L402.088 372.811C409.896 373.732 417.53 372.508 419.43 372.158L421.586 300.946C421.924 281.365 417.122 267.449 407.286 259.617C394.128 249.127 376.331 253.37 376.156 253.416L375.876 252.286C376.063 252.239 394.419 247.869 408.02 258.708C418.148 266.785 423.113 281.004 422.763 300.981L420.584 373.126L420.129 373.219C420.036 373.219 414.71 374.303 408.09 374.303Z" fill="#3251B2"/>
<path d="M519.882 350.48L518.775 350.118C518.856 349.862 527.155 323.918 527.061 312.834C526.886 292.146 517.131 268.311 517.038 268.067L518.11 267.624C518.215 267.869 528.052 291.913 528.227 312.822C528.32 324.104 520.232 349.407 519.882 350.48Z" fill="#3251B2"/>
<path d="M281.461 367.963L273.363 369.129L273.529 370.283L281.627 369.117L281.461 367.963Z" fill="#405391"/>
<path d="M193.865 393.312H107.27V394.478H193.865V393.312Z" fill="#363C50"/>
<path d="M361.063 208.917C361.063 210.502 359.781 211.784 358.196 211.784C356.611 211.784 355.329 210.502 355.329 208.917C355.329 207.332 356.611 206.05 358.196 206.05C359.781 206.062 361.063 207.344 361.063 208.917Z" fill="white"/>
<path d="M358.208 212.367C356.308 212.367 354.758 210.817 354.758 208.917C354.758 207.017 356.308 205.467 358.208 205.467C360.107 205.467 361.658 207.017 361.658 208.917C361.658 210.817 360.107 212.367 358.208 212.367ZM358.208 206.644C356.949 206.644 355.923 207.67 355.923 208.929C355.923 210.188 356.949 211.213 358.208 211.213C359.466 211.213 360.492 210.188 360.492 208.929C360.492 207.67 359.466 206.644 358.208 206.644Z" fill="#405391"/>
<path d="M496.444 188.043C496.444 189.628 495.162 190.91 493.577 190.91C491.992 190.91 490.71 189.628 490.71 188.043C490.71 186.458 491.992 185.176 493.577 185.176C495.162 185.176 496.444 186.458 496.444 188.043Z" fill="white"/>
<path d="M493.589 191.493C491.689 191.493 490.139 189.943 490.139 188.043C490.139 186.143 491.689 184.593 493.589 184.593C495.489 184.593 497.039 186.143 497.039 188.043C497.039 189.943 495.489 191.493 493.589 191.493ZM493.589 185.759C492.33 185.759 491.305 186.784 491.305 188.043C491.305 189.302 492.33 190.327 493.589 190.327C494.848 190.327 495.873 189.302 495.873 188.043C495.873 186.784 494.848 185.759 493.589 185.759Z" fill="#405391"/>
<path d="M328.127 120.164C328.127 121.749 326.845 123.031 325.26 123.031C323.675 123.031 322.393 121.749 322.393 120.164C322.393 118.579 323.675 117.297 325.26 117.297C326.845 117.308 328.127 118.59 328.127 120.164Z" fill="white"/>
<path d="M325.26 123.614C323.36 123.614 321.81 122.064 321.81 120.164C321.81 118.264 323.36 116.714 325.26 116.714C327.16 116.714 328.71 118.264 328.71 120.164C328.71 122.064 327.16 123.614 325.26 123.614ZM325.26 117.891C324.001 117.891 322.975 118.917 322.975 120.175C322.975 121.434 324.001 122.46 325.26 122.46C326.518 122.46 327.544 121.434 327.544 120.175C327.544 118.917 326.518 117.891 325.26 117.891Z" fill="#405391"/>
<path d="M224.365 203.195C224.365 204.78 223.083 206.062 221.498 206.062C219.913 206.062 218.631 204.78 218.631 203.195C218.631 201.609 219.913 200.327 221.498 200.327C223.083 200.339 224.365 201.609 224.365 203.195Z" fill="white"/>
<path d="M221.51 206.644C219.61 206.644 218.06 205.094 218.06 203.195C218.06 201.295 219.61 199.745 221.51 199.745C223.409 199.745 224.959 201.295 224.959 203.195C224.959 205.094 223.409 206.644 221.51 206.644ZM221.51 200.922C220.251 200.922 219.225 201.947 219.225 203.206C219.225 204.465 220.251 205.491 221.51 205.491C222.768 205.491 223.794 204.465 223.794 203.206C223.794 201.947 222.768 200.922 221.51 200.922Z" fill="#405391"/>
<path d="M335.842 54.7556C339.665 54.5575 342.707 51.399 342.707 47.5178C342.707 43.5085 339.455 40.2684 335.446 40.2684C334.712 40.2684 334.012 40.3733 333.348 40.5831C332.113 35.5131 327.567 31.7485 322.125 31.7485C316.729 31.7485 312.207 35.4548 310.924 40.4549C310.412 40.3383 309.876 40.2684 309.328 40.2684C305.319 40.2684 302.067 43.5202 302.067 47.5178C302.067 51.3291 305.016 54.4526 308.745 54.744L335.842 54.7556Z" fill="white"/>
<path d="M335.842 55.3383L308.757 55.3267C304.666 55.012 301.496 51.5737 301.496 47.5178C301.496 42.8091 305.692 39.0212 310.517 39.7671C312.067 34.6739 316.764 31.1541 322.125 31.1541C327.544 31.1541 332.253 34.7089 333.768 39.8604C334.327 39.7438 334.887 39.6739 335.458 39.6739C339.782 39.6739 343.301 43.1937 343.301 47.5061C343.301 51.667 340.038 55.1052 335.877 55.3267C335.866 55.3383 335.854 55.3383 335.842 55.3383ZM309.339 40.8511C305.657 40.8511 302.661 43.8464 302.661 47.5178C302.661 50.9677 305.365 53.8931 308.803 54.1612L335.819 54.1728C339.35 53.9747 342.124 51.0609 342.124 47.5178C342.124 43.8348 339.129 40.8511 335.446 40.8511C334.793 40.8511 334.141 40.9443 333.511 41.1424C333.36 41.1891 333.197 41.1658 333.057 41.0958C332.917 41.0142 332.812 40.886 332.777 40.7229C331.577 35.7811 327.195 32.3312 322.113 32.3312C317.102 32.3312 312.731 35.7345 311.484 40.5947C311.402 40.8977 311.099 41.0842 310.796 41.0142C310.318 40.9093 309.817 40.8511 309.339 40.8511Z" fill="#405391"/>
<path d="M452.646 30.2915H451.48V33.5782H452.646V30.2915Z" fill="#405391"/>
<path d="M441.842 35.5742L441.259 36.5835L444.105 38.2269L444.688 37.2175L441.842 35.5742Z" fill="#405391"/>
<path d="M443.908 45.9221L441.061 47.5652L441.644 48.5746L444.49 46.9316L443.908 45.9221Z" fill="#405391"/>
<path d="M452.18 50.9561H451.014V54.2428H452.18V50.9561Z" fill="#405391"/>
<path d="M459.503 46.3041L458.92 47.3135L461.766 48.9568L462.349 47.9475L459.503 46.3041Z" fill="#405391"/>
<path d="M462.041 35.9903L459.194 37.6333L459.777 38.6427L462.623 36.9997L462.041 35.9903Z" fill="#405391"/>
<path d="M256.975 81.0144H255.809V84.3011H256.975V81.0144Z" fill="#405391"/>
<path d="M246.186 86.2927L245.603 87.302L248.449 88.9454L249.032 87.936L246.186 86.2927Z" fill="#405391"/>
<path d="M248.228 96.6321L245.381 98.2751L245.964 99.2846L248.81 97.6416L248.228 96.6321Z" fill="#405391"/>
<path d="M256.509 101.679H255.343V104.966H256.509V101.679Z" fill="#405391"/>
<path d="M263.847 97.0229L263.264 98.0322L266.11 99.6756L266.693 98.6663L263.847 97.0229Z" fill="#405391"/>
<path d="M266.366 86.7102L263.52 88.3533L264.103 89.3627L266.949 87.7197L266.366 86.7102Z" fill="#405391"/>
<path d="M280.634 219.442H279.468V222.728H280.634V219.442Z" fill="#405391"/>
<path d="M269.857 224.711L269.274 225.72L272.121 227.363L272.703 226.354L269.857 224.711Z" fill="#405391"/>
<path d="M271.884 235.062L269.038 236.705L269.621 237.714L272.467 236.071L271.884 235.062Z" fill="#405391"/>
<path d="M280.168 240.106H279.002V243.393H280.168V240.106Z" fill="#405391"/>
<path d="M287.515 235.444L286.933 236.453L289.779 238.097L290.362 237.087L287.515 235.444Z" fill="#405391"/>
<path d="M290.008 225.136L287.161 226.779L287.744 227.788L290.59 226.145L290.008 225.136Z" fill="#405391"/>
<path d="M300.109 174.85C303.78 174.651 306.694 171.633 306.694 167.915C306.694 164.08 303.582 160.968 299.748 160.968C299.048 160.968 298.372 161.073 297.731 161.271C296.554 156.423 292.195 152.81 286.974 152.81C281.799 152.81 277.475 156.353 276.252 161.143C275.762 161.027 275.249 160.968 274.725 160.968C270.891 160.968 267.779 164.08 267.779 167.915C267.779 171.563 270.599 174.558 274.177 174.838L300.109 174.85Z" fill="white"/>
<path d="M300.109 175.432L274.166 175.421C270.226 175.118 267.184 171.819 267.184 167.915C267.184 163.393 271.194 159.756 275.832 160.467C277.324 155.584 281.834 152.215 286.974 152.215C292.172 152.215 296.682 155.619 298.139 160.549C298.664 160.432 299.2 160.374 299.736 160.374C303.885 160.374 307.265 163.754 307.265 167.903C307.265 171.901 304.13 175.211 300.132 175.421C300.121 175.432 300.109 175.432 300.109 175.432ZM274.713 161.551C271.205 161.551 268.35 164.407 268.35 167.915C268.35 171.213 270.926 173.999 274.212 174.255L300.097 174.267C303.466 174.08 306.111 171.295 306.111 167.915C306.111 164.407 303.256 161.551 299.748 161.551C299.13 161.551 298.501 161.644 297.906 161.819C297.755 161.866 297.592 161.842 297.452 161.772C297.312 161.691 297.207 161.563 297.172 161.4C296.03 156.679 291.834 153.381 286.986 153.381C282.196 153.381 278.012 156.633 276.823 161.283C276.741 161.586 276.438 161.772 276.135 161.703C275.634 161.609 275.168 161.551 274.713 161.551Z" fill="#405391"/>
<path d="M103.983 361.249C116.786 361.249 127.165 359.636 127.165 357.647C127.165 355.658 116.786 354.046 103.983 354.046C91.1807 354.046 80.8021 355.658 80.8021 357.647C80.8021 359.636 91.1807 361.249 103.983 361.249Z" fill="#363C50"/>
<path d="M98.2026 400.853H109.764C114.065 400.608 117.666 400.107 119.915 399.454L126.337 357.799H126.267C126.267 359.71 116.291 361.26 103.983 361.26C91.6759 361.26 81.6995 359.71 81.6995 357.799H81.6296L88.0513 399.454C90.3007 400.107 93.902 400.608 98.2026 400.853Z" fill="white"/>
<path d="M98.2026 401.435C98.1909 401.435 98.1793 401.435 98.1676 401.435C93.8554 401.191 90.2074 400.689 87.8882 400.013C87.6667 399.955 87.5152 399.769 87.4802 399.547L81.0585 357.892C81.0352 357.729 81.0818 357.554 81.1867 357.426C81.3965 357.181 81.851 357.169 82.0724 357.391C82.1773 357.496 82.2822 357.647 82.2822 357.799C82.492 358.801 90.1375 360.678 103.983 360.678C117.829 360.678 125.475 358.801 125.684 357.787C125.684 357.461 125.941 357.204 126.267 357.204C126.442 357.204 126.628 357.274 126.745 357.402C126.862 357.531 126.943 357.705 126.92 357.869L120.498 399.524C120.463 399.745 120.3 399.932 120.09 399.99C117.771 400.666 114.123 401.167 109.811 401.412L98.2026 401.435ZM98.2259 400.27H109.764C113.738 400.048 117.141 399.594 119.403 398.988L125.521 359.302C121.687 361.272 110.463 361.831 103.983 361.831C97.5033 361.831 86.2915 361.26 82.4454 359.302L88.5758 398.988C90.8251 399.594 94.2283 400.048 98.2259 400.27Z" fill="#363C50"/>
<path d="M71.5483 308.009C62.3644 308.009 54.9171 315.456 54.9171 324.64C54.9171 326.144 55.1385 327.601 55.5114 328.988C56.0243 328.731 56.5953 328.58 57.213 328.58C59.3692 328.58 61.1174 330.328 61.1174 332.473C61.1174 333.883 60.3598 335.107 59.2526 335.783C62.2945 339.139 66.6767 341.249 71.56 341.249C80.7439 341.249 88.1913 333.801 88.1913 324.617C88.168 315.456 80.7323 308.009 71.5483 308.009Z" fill="#3A5DCC"/>
<path d="M71.5483 341.843C66.7233 341.843 62.073 339.78 58.8097 336.179L58.3435 335.666L58.9379 335.293C59.9286 334.687 60.5229 333.626 60.5229 332.473C60.5229 330.643 59.0311 329.151 57.213 329.151C56.7235 329.151 56.2457 329.267 55.7678 329.5L55.1385 329.815L54.952 329.139C54.5441 327.636 54.3343 326.121 54.3343 324.64C54.3343 315.153 62.0497 307.426 71.5483 307.426C81.0469 307.426 88.7623 315.141 88.7623 324.64C88.7623 334.139 81.0352 341.843 71.5483 341.843ZM60.115 335.876C63.1336 338.941 67.2594 340.678 71.5367 340.678C80.3826 340.678 87.5852 333.487 87.5852 324.629C87.5852 315.771 80.3942 308.58 71.5367 308.58C62.6791 308.58 55.4881 315.782 55.4881 324.629C55.4881 325.794 55.628 326.995 55.9077 328.195C56.3272 328.067 56.7701 327.997 57.2014 327.997C59.6722 327.997 61.6768 330.013 61.6768 332.484C61.6884 333.801 61.1173 335.025 60.115 335.876Z" fill="#405391"/>
<path d="M83.9256 320.048C83.9256 321.319 82.9 322.344 81.6297 322.344C80.3593 322.344 79.3337 321.319 79.3337 320.048C79.3337 318.778 80.3593 317.752 81.6297 317.752C82.9 317.752 83.9256 318.778 83.9256 320.048Z" fill="white"/>
<path d="M81.6296 322.927C80.0446 322.927 78.7509 321.633 78.7509 320.048C78.7509 318.463 80.0446 317.169 81.6296 317.169C83.2147 317.169 84.5083 318.463 84.5083 320.048C84.5083 321.633 83.2147 322.927 81.6296 322.927ZM81.6296 318.335C80.6856 318.335 79.9164 319.104 79.9164 320.048C79.9164 320.992 80.6856 321.762 81.6296 321.762C82.5737 321.762 83.3429 320.992 83.3429 320.048C83.3429 319.104 82.5737 318.335 81.6296 318.335Z" fill="#405391"/>
<path d="M142.705 323.184C147.909 315.615 145.992 305.26 138.424 300.055C130.855 294.851 120.501 296.768 115.296 304.336C110.092 311.905 112.008 322.26 119.577 327.465C127.146 332.669 137.5 330.752 142.705 323.184Z" fill="#3A5DCC"/>
<path d="M128.994 330.957C120.941 330.957 113.738 325.269 112.118 317.088C111.233 312.577 112.142 307.997 114.706 304.174C117.258 300.351 121.151 297.763 125.661 296.866C134.973 295.025 144.041 301.097 145.882 310.409C147.724 319.722 141.651 328.789 132.339 330.631C131.22 330.852 130.102 330.957 128.994 330.957ZM129.006 297.705C127.98 297.705 126.932 297.81 125.894 298.008C121.687 298.836 118.062 301.26 115.673 304.815C113.284 308.37 112.433 312.647 113.261 316.854C114.974 325.537 123.423 331.202 132.106 329.477C140.789 327.764 146.453 319.302 144.728 310.631C143.236 303.008 136.512 297.705 129.006 297.705Z" fill="#405391"/>
<path d="M105.487 355.631C103.494 327.845 127.456 313.58 127.701 313.44L128.283 314.442C128.05 314.582 104.706 328.498 106.641 355.549L105.487 355.631Z" fill="#405391"/>
<path d="M96.2912 308.533C102.83 314.978 113.354 314.908 119.799 308.37C126.244 301.831 126.174 291.307 119.636 284.861C113.097 278.416 102.573 278.486 96.1281 285.025C89.683 291.563 89.753 302.088 96.2912 308.533Z" fill="#F9901C"/>
<path d="M107.969 313.906C103.412 313.906 99.135 312.146 95.8833 308.952C92.6084 305.724 90.7902 301.412 90.7553 296.82C90.7203 292.227 92.4802 287.892 95.7085 284.617C102.375 277.857 113.295 277.787 120.044 284.454C123.319 287.682 125.137 291.994 125.16 296.586C125.195 301.179 123.435 305.514 120.207 308.789C116.978 312.064 112.666 313.883 108.074 313.918C108.051 313.906 108.004 313.906 107.969 313.906ZM107.969 280.666C103.82 280.666 99.6828 282.262 96.5477 285.433C93.5407 288.486 91.8974 292.519 91.9207 296.808C91.9441 301.097 93.6456 305.106 96.6992 308.125C99.7527 311.132 103.785 312.775 108.074 312.752C112.363 312.729 116.372 311.027 119.391 307.973C122.409 304.92 124.041 300.887 124.018 296.598C123.995 292.309 122.293 288.3 119.239 285.281C116.116 282.204 112.037 280.666 107.969 280.666Z" fill="#405391"/>
<path d="M105.475 359.536C90.1259 338.871 106.011 298.906 106.699 297.216L107.783 297.659C107.62 298.067 91.4546 338.708 106.408 358.848L105.475 359.536Z" fill="#405391"/>
<path d="M101.128 361.307C97.7831 334.395 72.1893 325.27 71.9213 325.176L72.3059 324.069C72.5739 324.162 98.8437 333.498 102.282 361.156L101.128 361.307Z" fill="#405391"/>
<path d="M122.957 320.817C132.141 320.817 139.589 328.265 139.589 337.449C139.589 338.953 139.367 340.41 138.994 341.797C138.481 341.54 137.91 341.389 137.293 341.389C135.136 341.389 133.388 343.137 133.388 345.293C133.388 346.703 134.146 347.927 135.253 348.603C132.211 351.96 127.829 354.069 122.946 354.069C113.762 354.069 106.314 346.622 106.314 337.437C106.314 328.253 113.785 320.817 122.957 320.817Z" fill="#F9901C"/>
<path d="M122.957 354.652C113.47 354.652 105.743 346.936 105.743 337.437C105.743 327.939 113.459 320.223 122.957 320.223C132.456 320.223 140.171 327.939 140.171 337.437C140.171 338.918 139.961 340.433 139.554 341.936L139.367 342.612L138.738 342.298C138.272 342.065 137.782 341.948 137.293 341.948C135.463 341.948 133.983 343.44 133.983 345.27C133.983 346.423 134.577 347.472 135.568 348.09L136.162 348.463L135.684 348.988C132.433 352.589 127.794 354.652 122.957 354.652ZM122.957 321.4C114.111 321.4 106.909 328.591 106.909 337.449C106.909 346.307 114.111 353.498 122.957 353.498C127.246 353.498 131.372 351.75 134.379 348.696C133.388 347.845 132.805 346.622 132.805 345.305C132.805 342.834 134.81 340.817 137.281 340.817C137.724 340.817 138.155 340.887 138.575 341.016C138.854 339.815 138.994 338.626 138.994 337.449C139.006 328.591 131.803 321.4 122.957 321.4Z" fill="#405391"/>
<path d="M110.58 332.857C110.58 334.127 111.606 335.153 112.876 335.153C114.146 335.153 115.172 334.127 115.172 332.857C115.172 331.587 114.146 330.561 112.876 330.561C111.606 330.561 110.58 331.587 110.58 332.857Z" fill="white"/>
<path d="M112.876 335.724C111.291 335.724 109.997 334.43 109.997 332.845C109.997 331.26 111.291 329.967 112.876 329.967C114.461 329.967 115.755 331.26 115.755 332.845C115.755 334.442 114.461 335.724 112.876 335.724ZM112.876 331.144C111.932 331.144 111.163 331.913 111.163 332.857C111.163 333.801 111.932 334.57 112.876 334.57C113.82 334.57 114.589 333.801 114.589 332.857C114.589 331.913 113.82 331.144 112.876 331.144Z" fill="#405391"/>
<path d="M103.913 360.549L102.783 360.281C107.328 340.946 125.941 333.347 126.127 333.277L126.559 334.361C126.372 334.419 108.319 341.808 103.913 360.549Z" fill="#405391"/>
<path d="M200.473 390.585C201.324 393.464 200.111 396.354 197.769 397.042C195.426 397.729 192.839 395.958 192 393.091C191.149 390.212 192.361 387.321 194.704 386.634C197.046 385.934 199.634 387.706 200.473 390.585Z" fill="#405391"/>
<path d="M139.88 76.0258C123.692 77.2613 110.428 90.1168 108.715 106.259C108.051 112.599 109.135 118.625 111.536 123.928C111.99 124.931 112.014 126.061 111.676 127.098L108.319 137.471C107.69 139.429 109.449 141.318 111.442 140.816L121.221 138.369C122.375 138.077 123.61 138.229 124.624 138.858C130.556 142.541 137.701 144.464 145.334 143.847C161.814 142.53 175.159 129.173 176.452 112.693C178.096 91.7718 160.788 74.4407 139.88 76.0258Z" fill="white"/>
<path d="M142.526 144.546C136.057 144.546 129.81 142.774 124.309 139.348C123.47 138.823 122.386 138.672 121.361 138.928L111.582 141.376C110.44 141.667 109.275 141.318 108.47 140.455C107.666 139.593 107.398 138.404 107.76 137.285L111.116 126.912C111.419 125.98 111.372 125.001 111 124.161C108.47 118.579 107.48 112.366 108.132 106.189C109.857 89.8954 123.482 76.6786 139.833 75.4315C149.973 74.6506 159.891 78.3219 167.047 85.5015C174.191 92.6693 177.839 102.599 177.035 112.739C175.718 129.464 162.105 143.089 145.381 144.43C144.425 144.511 143.47 144.546 142.526 144.546ZM122.351 137.658C123.272 137.658 124.169 137.903 124.927 138.369C131.022 142.157 138.062 143.858 145.288 143.276C161.453 141.982 174.599 128.823 175.87 112.658C176.639 102.856 173.119 93.2638 166.22 86.329C159.308 79.4059 149.728 75.8627 139.927 76.6087C124.134 77.8091 110.965 90.5831 109.298 106.329C108.669 112.296 109.624 118.299 112.06 123.695C112.561 124.802 112.62 126.073 112.223 127.285L108.867 137.658C108.634 138.369 108.808 139.126 109.321 139.674C109.834 140.222 110.568 140.443 111.303 140.257L121.081 137.809C121.5 137.705 121.932 137.658 122.351 137.658Z" fill="#405391"/>
<path d="M158.155 106.038V118.847C158.155 118.847 154.67 123.905 143.085 123.905C131.5 123.905 128.015 118.847 128.015 118.847V106.038" fill="#F9901C"/>
<path d="M143.085 124.488C131.325 124.488 127.689 119.394 127.538 119.185L127.433 119.033V106.038H128.598V118.648C129.239 119.418 133.039 123.322 143.085 123.322C153.12 123.322 156.919 119.418 157.572 118.648V106.038H158.737V119.033L158.632 119.185C158.481 119.394 154.833 124.488 143.085 124.488Z" fill="#405391"/>
<path d="M154.623 108.194H153.458V127.949H154.623V108.194Z" fill="#405391"/>
<path d="M142.712 113.229L119.939 103.543C119.146 103.205 119.181 102.075 119.985 101.784L142.759 93.3337C142.968 93.2521 143.202 93.2521 143.423 93.3337L166.196 101.784C167 102.087 167.024 103.205 166.243 103.543L143.47 113.229C143.213 113.322 142.945 113.322 142.712 113.229Z" fill="#F9901C"/>
<path d="M143.085 113.882C142.875 113.882 142.677 113.835 142.491 113.765L119.717 104.08C119.135 103.835 118.773 103.264 118.785 102.634C118.797 102.005 119.193 101.457 119.787 101.236L142.561 92.7859C142.898 92.6576 143.283 92.6576 143.621 92.7859L166.394 101.236C166.989 101.457 167.373 102.005 167.397 102.634C167.408 103.264 167.047 103.835 166.464 104.08L143.691 113.765C143.493 113.847 143.283 113.882 143.085 113.882ZM143.085 93.8581C143.038 93.8581 143.003 93.8698 142.957 93.8814L120.183 102.331C119.974 102.413 119.95 102.588 119.95 102.669C119.95 102.751 119.962 102.926 120.172 103.019L142.945 112.704C143.038 112.739 143.143 112.739 143.236 112.704L166.01 103.019C166.22 102.926 166.231 102.751 166.231 102.669C166.231 102.588 166.208 102.413 165.998 102.331L143.225 93.8814C143.167 93.8581 143.12 93.8581 143.085 93.8581Z" fill="#405391"/>
<path d="M154.04 131.446C153.073 131.446 152.292 130.665 152.292 129.697C152.292 128.73 153.073 127.949 154.04 127.949C155.008 127.949 155.789 128.73 155.789 129.697C155.789 130.665 155.008 131.446 154.04 131.446Z" fill="#405391"/>
<path d="M218.759 313.452C219.353 312.484 220.181 311.925 221.311 311.878C222.477 311.832 223.234 312.461 223.759 313.428C223.887 313.358 223.899 313.242 223.934 313.16C224.726 311.459 227.034 310.992 228.397 312.251C228.945 312.752 229.143 313.405 229.19 314.104C229.365 316.587 229.516 319.058 229.68 321.54C229.703 321.96 229.61 322.076 229.19 322.111C228.666 322.158 228.141 322.193 227.617 322.216C227.197 322.24 227.104 322.158 227.081 321.738C226.976 320.095 226.859 318.452 226.754 316.808C226.719 316.226 226.661 315.643 226.579 315.06C226.509 314.629 226.335 314.267 225.868 314.151C225.367 314.034 224.924 314.139 224.575 314.536C224.248 314.897 224.178 315.34 224.213 315.806C224.33 317.776 224.458 319.757 224.575 321.727C224.575 321.82 224.575 321.913 224.586 322.006C224.598 322.251 224.493 322.403 224.237 322.426C223.607 322.508 222.966 322.543 222.325 322.554C222.104 322.554 221.987 322.438 221.952 322.216C221.941 322.111 221.929 322.018 221.917 321.913C221.789 319.967 221.661 318.032 221.533 316.086C221.51 315.736 221.451 315.386 221.311 315.06C221.125 314.64 220.799 314.419 220.344 314.419C219.878 314.419 219.493 314.594 219.283 315.037C219.062 315.491 219.039 315.992 219.074 316.482C219.19 318.347 219.318 320.2 219.435 322.065C219.47 322.682 219.4 322.752 218.782 322.799C218.305 322.834 217.838 322.869 217.36 322.892C216.964 322.916 216.813 322.787 216.789 322.379C216.58 319.244 216.381 316.109 216.172 312.974C216.148 312.542 216.23 312.438 216.661 312.403C217.174 312.368 217.687 312.333 218.2 312.298C218.526 312.274 218.654 312.391 218.689 312.706C218.736 312.962 218.747 313.207 218.759 313.452Z" fill="white"/>
<path d="M215.134 321.051C214.657 320.515 214.423 319.885 214.412 319.163C214.4 318.58 214.342 318.009 214.307 317.438C214.26 316.785 214.225 316.132 214.179 315.491C214.062 313.988 213.386 313.09 212.104 312.717C210.659 312.309 209.284 312.461 207.943 313.125C206.906 313.638 206.347 314.477 206.184 315.608C206.137 315.946 206.254 316.097 206.591 316.121C206.964 316.144 207.337 316.156 207.71 316.179C208.538 316.214 208.538 316.295 208.818 315.433C209.004 314.85 209.622 314.524 210.309 314.57C210.95 314.617 211.323 314.932 211.463 315.608C211.51 315.794 211.51 315.992 211.533 316.191C211.568 316.564 211.533 316.622 211.16 316.668C210.507 316.762 209.855 316.902 209.225 317.053C207.011 317.578 205.985 318.953 206.207 321.121C206.323 322.274 207.011 323.172 208.083 323.428C209.587 323.778 210.927 323.498 211.988 322.298C212.267 321.995 212.337 321.995 212.57 322.321C212.78 322.612 213.037 322.846 213.328 323.044C213.631 323.265 213.759 323.254 214.027 322.997C214.4 322.636 214.773 322.275 215.134 321.913C215.472 321.552 215.472 321.435 215.134 321.051ZM211.673 318.918C211.72 319.617 211.65 320.293 211.242 320.888C211.055 321.156 210.834 321.342 210.531 321.447C209.913 321.68 209.342 321.435 209.074 320.841C208.584 319.734 209.202 318.591 210.461 318.323C210.706 318.277 210.939 318.23 211.183 318.172C211.533 318.102 211.638 318.184 211.65 318.533C211.661 318.673 211.673 318.79 211.673 318.918Z" fill="white"/>
<path d="M240.18 319.419C239.726 318.918 239.493 318.335 239.446 317.659C239.411 316.983 239.365 316.307 239.318 315.619H239.295C239.248 314.897 239.225 314.186 239.143 313.463C239.003 312.24 238.339 311.412 237.138 311.074C235.682 310.666 234.271 310.806 232.919 311.494C231.94 311.995 231.369 312.811 231.195 313.906C231.125 314.314 231.218 314.431 231.626 314.466C231.987 314.489 232.348 314.512 232.698 314.524C233.456 314.559 233.526 314.617 233.77 313.836C233.782 313.801 233.805 313.755 233.829 313.72C234.108 313.16 234.749 312.846 235.402 312.916C235.985 312.985 236.323 313.335 236.474 314.023C236.509 314.174 236.521 314.326 236.532 314.489C236.567 314.885 236.497 314.978 236.101 315.025C235.355 315.13 234.621 315.282 233.898 315.491C232.022 316.027 231.031 317.403 231.183 319.256C231.299 320.666 232.174 321.715 233.456 321.878C234.854 322.041 236.09 321.715 237.045 320.596C237.267 320.34 237.337 320.34 237.535 320.62C237.745 320.923 238.013 321.156 238.292 321.377C238.584 321.599 238.782 321.587 239.027 321.342C239.411 320.981 239.784 320.608 240.145 320.235C240.495 319.909 240.507 319.78 240.18 319.419ZM236.707 317.205C236.754 317.997 236.707 318.766 236.136 319.407C235.798 319.78 235.379 319.979 234.866 319.874C234.376 319.769 234.132 319.396 234.003 318.93C233.724 317.904 234.295 316.995 235.437 316.703C235.705 316.634 235.973 316.587 236.253 316.54C236.591 316.482 236.672 316.552 236.684 316.902L236.707 317.205Z" fill="white"/>
<path d="M262.173 311.039C262.231 310.922 262.278 310.806 262.336 310.689C262.907 309.442 263.921 308.871 265.25 309.069C266.45 309.244 267.289 310.153 267.464 311.459C267.697 313.149 267.72 314.85 267.86 316.54C267.93 317.368 267.977 318.207 268.024 319.034C268.047 319.466 267.965 319.57 267.534 319.605C267.01 319.652 266.485 319.687 265.961 319.71C265.518 319.734 265.425 319.64 265.401 319.221C265.261 317.263 265.133 315.316 265.005 313.358C264.982 312.997 264.935 312.636 264.807 312.298C264.644 311.901 264.376 311.622 263.933 311.552C263.478 311.493 263.129 311.68 262.872 312.041C262.557 312.461 262.464 312.95 262.476 313.475C262.534 315.363 262.686 317.239 262.802 319.116C262.814 319.244 262.814 319.361 262.814 319.489C262.825 319.769 262.674 319.92 262.406 319.932C261.823 319.978 261.229 320.025 260.646 320.048C260.308 320.06 260.203 319.932 260.18 319.547C260.028 317.205 259.877 314.862 259.714 312.507C259.655 311.692 259.609 310.887 259.551 310.072C259.527 309.675 259.597 309.594 259.982 309.559C260.518 309.512 261.054 309.489 261.59 309.454C261.87 309.442 262.021 309.559 262.033 309.838C262.056 310.223 262.08 310.619 262.103 311.004C262.126 311.027 262.15 311.039 262.173 311.039Z" fill="white"/>
<path d="M257.441 311.703C256.614 310.316 255.39 309.664 253.793 309.757C252.266 309.838 251.066 310.514 250.413 311.925C249.318 314.302 249.492 316.657 250.833 318.883C251.625 320.2 252.872 320.783 254.632 320.666C255.984 320.584 257.115 319.792 257.791 318.382C258.898 316.086 258.735 313.871 257.441 311.703ZM255.471 317.554C255.308 318.102 255.005 318.521 254.399 318.626C253.91 318.708 253.548 318.463 253.269 318.09C252.931 317.636 252.826 317.099 252.744 316.563C252.581 315.538 252.488 314.5 252.593 313.451C252.628 313.113 252.698 312.775 252.861 312.472C253.094 312.018 253.478 311.796 253.98 311.796C254.504 311.796 254.877 312.041 255.098 312.519C255.448 313.3 255.53 314.127 255.576 314.955C255.576 315.013 255.576 315.083 255.576 315.141C255.646 315.946 255.716 316.75 255.471 317.554Z" fill="white"/>
<path d="M232.092 329.85C226.043 330.2 220.705 328.731 215.939 325.27C215.706 325.095 215.472 324.92 215.251 324.745C215.099 324.629 214.971 324.477 215.111 324.268C215.239 324.081 215.437 324.128 215.612 324.198C216.02 324.373 216.416 324.571 216.824 324.757C219.785 326.086 222.896 326.89 226.113 327.263C228.584 327.554 231.066 327.566 233.537 327.275C237.174 326.855 240.623 325.818 243.91 324.233C244.061 324.163 244.225 324.081 244.399 324.034C244.644 323.976 244.877 324 245.005 324.256C245.145 324.512 245.029 324.722 244.842 324.885C244.609 325.095 244.376 325.293 244.131 325.48C241.777 327.205 239.155 328.359 236.334 329.093C234.878 329.489 233.386 329.687 232.092 329.85Z" fill="white"/>
<path d="M245.052 312.659C244.05 312.729 243.106 312.787 242.162 312.845C241.497 312.892 241.451 312.857 241.404 312.169C241.381 311.843 241.369 311.517 241.334 311.179C241.311 310.922 241.416 310.759 241.684 310.736C241.777 310.724 241.87 310.713 241.964 310.713C243.852 310.584 245.751 310.468 247.639 310.34C248.222 310.305 248.269 310.34 248.362 310.911C248.49 311.668 248.304 312.368 247.896 312.997C246.975 314.419 246.136 315.899 245.239 317.333C245.192 317.403 245.122 317.461 245.18 317.554C245.227 317.624 245.308 317.589 245.378 317.589C246.346 317.554 247.278 317.647 248.21 317.927C248.735 318.09 249.05 318.382 249.085 318.941C249.108 319.326 249.155 319.722 249.143 320.107C249.143 320.503 248.968 320.596 248.595 320.48C247.966 320.27 247.325 320.072 246.66 319.99C245.192 319.803 243.817 320.083 242.5 320.736C241.684 321.144 241.602 321.109 241.544 320.188C241.427 318.358 241.346 318.778 242.278 317.251C243.129 315.841 243.98 314.431 244.831 313.032C244.912 312.927 244.97 312.81 245.052 312.659Z" fill="white"/>
<path d="M245.845 323.347C244.947 323.452 243.957 323.556 243.001 323.778C242.803 323.825 242.605 323.86 242.511 323.615C242.418 323.393 242.57 323.265 242.721 323.16C243.723 322.403 244.877 322.018 246.101 321.832C247.08 321.68 248.047 321.668 249.015 321.901C249.469 322.018 249.597 322.17 249.621 322.636C249.737 324.92 249.108 326.948 247.546 328.65C247.418 328.79 247.266 328.918 247.068 328.813C246.835 328.696 246.917 328.498 246.975 328.323C247.313 327.333 247.616 326.319 247.803 325.293C247.873 324.943 247.931 324.582 247.907 324.221C247.873 323.673 247.698 323.487 247.138 323.382C246.719 323.312 246.322 323.312 245.845 323.347Z" fill="white"/>
<path d="M223.036 339.372L223.141 340.433L220.402 340.713L220.577 342.391L222.675 342.181L222.78 343.23L220.682 343.44L220.962 346.214L219.645 346.354L218.98 339.792L223.036 339.372Z" fill="white"/>
<path d="M228.992 342.554C229.26 342.834 229.411 343.16 229.458 343.556C229.493 343.906 229.435 344.221 229.295 344.512C229.155 344.792 228.922 345.025 228.607 345.211C228.293 345.398 227.92 345.514 227.477 345.549L224.645 345.841L223.98 339.279L226.684 338.999C227.127 338.953 227.523 338.988 227.861 339.093C228.199 339.209 228.467 339.384 228.654 339.617C228.84 339.862 228.957 340.141 228.992 340.468C229.027 340.852 228.957 341.179 228.782 341.458C228.607 341.738 228.351 341.948 228.025 342.088C228.397 342.123 228.724 342.274 228.992 342.554ZM225.565 341.843L226.766 341.715C227.081 341.68 227.314 341.587 227.465 341.424C227.617 341.26 227.687 341.051 227.652 340.794C227.628 340.526 227.523 340.34 227.337 340.211C227.15 340.083 226.906 340.037 226.591 340.072L225.391 340.2L225.565 341.843ZM227.896 344.197C228.059 344.034 228.129 343.801 228.094 343.533C228.071 343.253 227.955 343.044 227.745 342.904C227.535 342.764 227.279 342.706 226.964 342.741L225.67 342.869L225.845 344.64L227.174 344.5C227.488 344.465 227.733 344.361 227.896 344.197Z" fill="white"/>
<path d="M234.575 343.556L231.964 343.825L231.661 345.118L230.274 345.258L231.964 338.452L233.491 338.3L236.521 344.629L235.134 344.769L234.575 343.556ZM234.12 342.542L232.896 339.897L232.232 342.741L234.12 342.542Z" fill="white"/>
<path d="M244.691 343.789L243.91 343.16C243.362 343.766 242.64 344.116 241.765 344.209C241.288 344.256 240.845 344.221 240.472 344.093C240.087 343.964 239.784 343.755 239.551 343.475C239.318 343.195 239.19 342.845 239.143 342.449C239.097 342.018 239.178 341.622 239.388 341.249C239.598 340.876 239.924 340.561 240.379 340.305C240.192 340.118 240.041 339.932 239.947 339.745C239.854 339.559 239.796 339.361 239.772 339.139C239.738 338.836 239.796 338.556 239.924 338.3C240.052 338.044 240.262 337.834 240.542 337.659C240.821 337.496 241.148 337.391 241.544 337.344C241.94 337.309 242.29 337.344 242.581 337.461C242.884 337.577 243.106 337.764 243.269 337.997C243.432 338.23 243.525 338.51 243.537 338.813L242.255 338.941C242.243 338.731 242.173 338.58 242.057 338.486C241.94 338.393 241.789 338.347 241.602 338.37C241.427 338.393 241.288 338.451 241.183 338.568C241.078 338.685 241.031 338.824 241.055 338.988C241.066 339.139 241.136 339.291 241.241 339.442C241.346 339.582 241.521 339.757 241.754 339.967L243.572 341.435C243.584 341.424 243.595 341.412 243.595 341.389C243.595 341.377 243.607 341.365 243.607 341.354L244.05 340.41L245.425 340.27L244.889 341.493C244.784 341.75 244.679 341.995 244.551 342.228L246.299 343.638L244.691 343.789ZM243.001 342.426L241.218 340.992C240.635 341.319 240.367 341.738 240.425 342.228C240.448 342.507 240.588 342.741 240.821 342.904C241.055 343.079 241.346 343.137 241.696 343.102C242.208 343.055 242.64 342.822 243.001 342.426Z" fill="white"/>
<path d="M252.581 336.354L252.686 337.414L249.947 337.694L250.122 339.372L252.22 339.163L252.325 340.212L250.227 340.421L250.507 343.195L249.19 343.335L248.525 336.773L252.581 336.354Z" fill="white"/>
<path d="M258.525 339.536C258.793 339.815 258.945 340.142 258.991 340.538C259.026 340.887 258.968 341.202 258.828 341.494C258.688 341.773 258.455 342.006 258.14 342.193C257.826 342.379 257.453 342.496 257.01 342.531L254.178 342.822L253.513 336.26L256.217 335.981C256.66 335.934 257.056 335.969 257.394 336.074C257.732 336.191 258 336.365 258.187 336.598C258.373 336.843 258.49 337.123 258.525 337.449C258.56 337.834 258.49 338.16 258.315 338.44C258.14 338.72 257.884 338.929 257.558 339.069C257.931 339.104 258.257 339.256 258.525 339.536ZM255.098 338.836L256.299 338.708C256.614 338.673 256.847 338.58 256.998 338.417C257.15 338.253 257.22 338.044 257.185 337.787C257.161 337.519 257.056 337.333 256.87 337.205C256.683 337.076 256.439 337.03 256.124 337.065L254.924 337.193L255.098 338.836ZM257.429 341.179C257.593 341.016 257.663 340.783 257.628 340.515C257.604 340.235 257.488 340.025 257.278 339.885C257.068 339.745 256.812 339.687 256.497 339.722L255.203 339.85L255.378 341.622L256.707 341.482C257.033 341.447 257.266 341.342 257.429 341.179Z" fill="white"/>
<path d="M266.707 334.908L267.371 341.47L266.054 341.61L265.623 337.344L264.306 341.785L263.315 341.89L261.112 337.799L261.543 342.065L260.227 342.204L259.562 335.643L261.054 335.491L263.641 340.153L265.226 335.06L266.707 334.908Z" fill="white"/>
<path d="M289.899 351.132C289.666 351.051 289.48 350.934 289.328 350.76C289.177 350.585 289.095 350.375 289.072 350.13L289.946 350.06C289.969 350.223 290.039 350.352 290.156 350.445C290.272 350.538 290.424 350.573 290.61 350.55C290.797 350.538 290.948 350.48 291.042 350.375C291.146 350.27 291.193 350.153 291.181 350.002C291.17 349.885 291.123 349.78 291.042 349.711C290.96 349.641 290.867 349.582 290.75 349.547C290.634 349.512 290.482 349.477 290.284 349.431C290.016 349.373 289.795 349.314 289.62 349.256C289.445 349.198 289.293 349.093 289.165 348.953C289.037 348.813 288.955 348.615 288.944 348.359C288.92 348.114 288.967 347.904 289.072 347.718C289.177 347.531 289.34 347.38 289.55 347.263C289.76 347.146 290.004 347.088 290.284 347.065C290.704 347.03 291.053 347.111 291.333 347.286C291.613 347.473 291.776 347.741 291.834 348.102L290.937 348.172C290.913 348.032 290.855 347.927 290.727 347.846C290.61 347.764 290.459 347.729 290.272 347.741C290.109 347.752 289.993 347.799 289.899 347.892C289.806 347.986 289.771 348.102 289.783 348.254C289.795 348.359 289.83 348.452 289.911 348.51C289.993 348.58 290.086 348.627 290.191 348.662C290.296 348.697 290.459 348.732 290.657 348.778C290.925 348.836 291.147 348.895 291.321 348.965C291.496 349.035 291.648 349.139 291.776 349.279C291.904 349.431 291.986 349.617 292.009 349.874C292.021 350.095 291.986 350.293 291.892 350.491C291.799 350.69 291.636 350.841 291.438 350.969C291.228 351.097 290.972 351.167 290.68 351.202C290.389 351.237 290.133 351.214 289.899 351.132Z" fill="#2740A1"/>
<path d="M293.291 346.89L293.489 349.396C293.512 349.676 293.594 349.874 293.757 350.014C293.909 350.142 294.118 350.2 294.375 350.188C294.643 350.165 294.841 350.084 294.969 349.92C295.097 349.769 295.156 349.547 295.132 349.268L294.934 346.762L295.75 346.692L295.948 349.198C295.972 349.547 295.925 349.839 295.797 350.095C295.669 350.34 295.482 350.538 295.237 350.678C294.993 350.818 294.725 350.899 294.421 350.923C294.118 350.946 293.839 350.911 293.582 350.806C293.326 350.701 293.116 350.538 292.953 350.317C292.79 350.095 292.697 349.804 292.673 349.454L292.475 346.948L293.291 346.89Z" fill="#2740A1"/>
<path d="M296.683 347.578C296.834 347.251 297.067 346.983 297.358 346.785C297.65 346.587 297.999 346.47 298.384 346.435C298.839 346.4 299.247 346.482 299.608 346.692C299.969 346.902 300.226 347.205 300.4 347.601L299.468 347.671C299.363 347.484 299.223 347.344 299.037 347.263C298.85 347.181 298.664 347.146 298.442 347.17C298.209 347.193 297.999 347.263 297.825 347.379C297.65 347.508 297.522 347.671 297.428 347.881C297.347 348.09 297.312 348.335 297.335 348.603C297.358 348.871 297.428 349.104 297.545 349.302C297.662 349.501 297.825 349.64 298.011 349.734C298.209 349.827 298.419 349.874 298.652 349.85C298.874 349.839 299.06 349.769 299.223 349.652C299.386 349.536 299.503 349.384 299.585 349.186L300.517 349.116C300.412 349.547 300.202 349.885 299.888 350.142C299.561 350.398 299.177 350.55 298.722 350.585C298.337 350.619 297.976 350.55 297.65 350.398C297.324 350.247 297.055 350.025 296.857 349.722C296.648 349.419 296.531 349.069 296.508 348.673C296.461 348.277 296.531 347.904 296.683 347.578Z" fill="#2740A1"/>
<path d="M301.146 347.228C301.298 346.902 301.531 346.633 301.822 346.435C302.114 346.237 302.463 346.121 302.848 346.086C303.302 346.051 303.71 346.132 304.072 346.342C304.433 346.552 304.689 346.855 304.864 347.251L303.932 347.321C303.827 347.135 303.687 346.995 303.5 346.913C303.326 346.832 303.128 346.797 302.906 346.808C302.673 346.832 302.463 346.902 302.288 347.018C302.114 347.146 301.985 347.31 301.892 347.519C301.811 347.729 301.776 347.962 301.799 348.242C301.822 348.51 301.892 348.743 302.009 348.93C302.125 349.128 302.288 349.268 302.475 349.372C302.673 349.466 302.883 349.512 303.116 349.489C303.337 349.477 303.524 349.407 303.687 349.291C303.85 349.174 303.967 349.023 304.048 348.825L304.981 348.755C304.876 349.186 304.666 349.524 304.351 349.78C304.037 350.037 303.64 350.188 303.186 350.223C302.801 350.258 302.44 350.188 302.114 350.037C301.787 349.885 301.519 349.664 301.321 349.361C301.111 349.058 300.995 348.708 300.96 348.312C300.925 347.916 300.995 347.554 301.146 347.228Z" fill="#2740A1"/>
<path d="M306.321 346.517L306.403 347.531L307.766 347.426L307.813 348.067L306.449 348.172L306.531 349.244L308.069 349.116L308.116 349.78L305.762 349.967L305.435 345.911L307.789 345.724L307.848 346.389L306.321 346.517Z" fill="#2740A1"/>
<path d="M309.503 349.582C309.27 349.501 309.083 349.373 308.932 349.209C308.78 349.035 308.699 348.825 308.675 348.58L309.549 348.51C309.573 348.673 309.643 348.801 309.759 348.895C309.876 348.988 310.027 349.023 310.214 349C310.4 348.988 310.552 348.93 310.645 348.825C310.75 348.732 310.796 348.603 310.785 348.452C310.773 348.335 310.726 348.23 310.645 348.16C310.563 348.09 310.47 348.032 310.354 347.997C310.237 347.962 310.085 347.927 309.887 347.881C309.619 347.822 309.398 347.764 309.223 347.706C309.048 347.648 308.897 347.543 308.768 347.391C308.64 347.251 308.559 347.053 308.547 346.797C308.524 346.552 308.57 346.342 308.675 346.156C308.78 345.969 308.943 345.818 309.153 345.701C309.363 345.585 309.608 345.526 309.887 345.503C310.307 345.468 310.657 345.55 310.936 345.725C311.216 345.911 311.379 346.179 311.437 346.54L310.54 346.61C310.517 346.47 310.458 346.366 310.33 346.284C310.214 346.202 310.062 346.167 309.876 346.179C309.713 346.191 309.596 346.237 309.503 346.331C309.409 346.424 309.375 346.54 309.386 346.692C309.398 346.797 309.433 346.89 309.514 346.948C309.596 347.018 309.689 347.065 309.794 347.1C309.899 347.135 310.062 347.17 310.26 347.216C310.528 347.275 310.75 347.333 310.925 347.403C311.099 347.461 311.251 347.566 311.379 347.718C311.507 347.869 311.589 348.067 311.612 348.312C311.636 348.533 311.589 348.732 311.496 348.93C311.402 349.128 311.251 349.291 311.041 349.419C310.831 349.547 310.575 349.617 310.284 349.652C309.992 349.687 309.736 349.664 309.503 349.582Z" fill="#2740A1"/>
<path d="M313.034 349.303C312.801 349.221 312.615 349.104 312.463 348.93C312.312 348.755 312.23 348.545 312.207 348.3L313.081 348.23C313.104 348.394 313.174 348.522 313.29 348.615C313.407 348.708 313.559 348.743 313.745 348.72C313.932 348.708 314.083 348.65 314.176 348.545C314.281 348.44 314.328 348.324 314.316 348.172C314.304 348.056 314.258 347.951 314.176 347.881C314.095 347.811 314.001 347.752 313.885 347.718C313.768 347.683 313.617 347.648 313.419 347.601C313.151 347.543 312.929 347.484 312.754 347.426C312.58 347.368 312.428 347.263 312.3 347.123C312.172 346.983 312.09 346.785 312.078 346.529C312.055 346.284 312.102 346.074 312.207 345.888C312.312 345.701 312.475 345.55 312.684 345.433C312.894 345.317 313.139 345.258 313.419 345.235C313.838 345.2 314.188 345.282 314.468 345.456C314.747 345.643 314.91 345.911 314.969 346.272L314.071 346.342C314.048 346.202 313.99 346.097 313.862 346.016C313.745 345.934 313.594 345.899 313.407 345.911C313.244 345.923 313.127 345.969 313.034 346.063C312.941 346.156 312.906 346.272 312.918 346.424C312.929 346.529 312.964 346.622 313.046 346.68C313.127 346.75 313.221 346.797 313.325 346.832C313.43 346.867 313.594 346.913 313.792 346.948C314.06 347.007 314.281 347.065 314.456 347.135C314.631 347.205 314.782 347.31 314.911 347.449C315.039 347.589 315.12 347.787 315.144 348.044C315.167 348.265 315.12 348.463 315.027 348.662C314.934 348.86 314.782 349.023 314.573 349.151C314.363 349.279 314.106 349.349 313.815 349.384C313.524 349.408 313.267 349.384 313.034 349.303Z" fill="#2740A1"/>
<path d="M317.16 345.958C317.311 345.631 317.544 345.363 317.836 345.165C318.139 344.967 318.477 344.85 318.861 344.815C319.316 344.78 319.724 344.862 320.085 345.072C320.446 345.282 320.703 345.585 320.878 345.981L319.945 346.051C319.84 345.864 319.689 345.725 319.514 345.643C319.339 345.561 319.141 345.526 318.92 345.538C318.687 345.561 318.477 345.631 318.302 345.748C318.127 345.876 317.999 346.039 317.906 346.249C317.824 346.459 317.789 346.704 317.812 346.972C317.836 347.24 317.906 347.473 318.022 347.659C318.139 347.857 318.302 347.997 318.488 348.102C318.687 348.195 318.896 348.242 319.129 348.219C319.351 348.207 319.537 348.137 319.701 348.021C319.864 347.904 319.98 347.753 320.062 347.554L320.994 347.484C320.889 347.916 320.68 348.254 320.365 348.51C320.05 348.766 319.654 348.918 319.199 348.953C318.815 348.988 318.453 348.918 318.127 348.766C317.801 348.615 317.533 348.394 317.335 348.091C317.137 347.787 317.008 347.438 316.985 347.042C316.938 346.645 316.997 346.284 317.16 345.958Z" fill="#2740A1"/>
<path d="M322.603 348.417C322.276 348.265 321.997 348.032 321.787 347.741C321.577 347.449 321.449 347.088 321.425 346.692C321.391 346.296 321.46 345.934 321.624 345.608C321.787 345.282 322.02 345.014 322.323 344.804C322.626 344.606 322.964 344.489 323.349 344.454C323.733 344.419 324.094 344.489 324.421 344.641C324.747 344.792 325.015 345.025 325.225 345.317C325.435 345.62 325.551 345.969 325.586 346.366C325.621 346.762 325.551 347.135 325.4 347.461C325.237 347.787 325.003 348.056 324.7 348.265C324.397 348.463 324.059 348.592 323.675 348.615C323.29 348.638 322.941 348.568 322.603 348.417ZM324.246 347.659C324.421 347.531 324.561 347.368 324.642 347.146C324.735 346.937 324.759 346.692 324.747 346.424C324.724 346.156 324.654 345.923 324.537 345.725C324.421 345.526 324.258 345.387 324.059 345.293C323.861 345.2 323.652 345.165 323.407 345.177C323.162 345.188 322.952 345.27 322.777 345.387C322.603 345.515 322.463 345.678 322.381 345.888C322.3 346.098 322.265 346.342 322.276 346.61C322.288 346.878 322.37 347.111 322.486 347.31C322.603 347.508 322.766 347.648 322.964 347.753C323.162 347.846 323.383 347.892 323.628 347.869C323.873 347.846 324.071 347.788 324.246 347.659Z" fill="#2740A1"/>
<path d="M326.833 344.233L327.031 346.738C327.055 347.018 327.136 347.216 327.299 347.356C327.451 347.496 327.661 347.543 327.917 347.531C328.185 347.508 328.383 347.426 328.512 347.263C328.64 347.111 328.698 346.89 328.675 346.61L328.477 344.104L329.292 344.034L329.491 346.54C329.514 346.89 329.467 347.181 329.339 347.426C329.211 347.671 329.024 347.869 328.78 348.009C328.535 348.149 328.267 348.23 327.964 348.254C327.661 348.277 327.381 348.242 327.125 348.137C326.868 348.032 326.658 347.869 326.495 347.648C326.332 347.426 326.239 347.135 326.216 346.785L326.017 344.279L326.833 344.233Z" fill="#2740A1"/>
<path d="M332.486 347.869L331.46 346.366L331.076 346.4L331.204 347.986L330.388 348.056L330.062 344L331.588 343.883C331.903 343.86 332.171 343.895 332.404 343.988C332.637 344.081 332.812 344.221 332.94 344.396C333.069 344.571 333.138 344.78 333.162 345.014C333.185 345.282 333.127 345.526 332.987 345.759C332.847 345.993 332.626 346.156 332.334 346.261L333.43 347.822L332.486 347.869ZM331.041 345.771L331.717 345.713C331.938 345.701 332.101 345.631 332.194 345.515C332.299 345.398 332.334 345.247 332.323 345.06C332.311 344.874 332.241 344.734 332.125 344.641C332.008 344.547 331.833 344.512 331.623 344.524L330.947 344.582L331.041 345.771Z" fill="#2740A1"/>
<path d="M334.747 347.578C334.514 347.496 334.327 347.38 334.176 347.205C334.024 347.03 333.943 346.82 333.919 346.575L334.793 346.505C334.817 346.669 334.887 346.797 335.003 346.89C335.12 346.983 335.271 347.018 335.458 346.995C335.644 346.983 335.796 346.925 335.889 346.82C335.994 346.715 336.04 346.599 336.029 346.447C336.017 346.331 335.971 346.226 335.889 346.156C335.807 346.086 335.714 346.028 335.598 345.993C335.481 345.958 335.33 345.923 335.131 345.876C334.863 345.818 334.642 345.76 334.467 345.701C334.292 345.643 334.141 345.538 334.013 345.398C333.884 345.258 333.803 345.06 333.791 344.804C333.768 344.559 333.814 344.349 333.919 344.163C334.024 343.976 334.187 343.825 334.397 343.708C334.607 343.592 334.852 343.533 335.131 343.51C335.551 343.475 335.901 343.557 336.18 343.732C336.46 343.918 336.623 344.186 336.681 344.547L335.784 344.617C335.761 344.477 335.702 344.373 335.574 344.291C335.458 344.209 335.306 344.174 335.12 344.186C334.957 344.198 334.84 344.244 334.747 344.338C334.654 344.431 334.619 344.547 334.63 344.699C334.642 344.804 334.677 344.897 334.758 344.955C334.84 345.025 334.933 345.072 335.038 345.107C335.143 345.142 335.306 345.188 335.504 345.223C335.772 345.282 335.994 345.34 336.169 345.41C336.343 345.48 336.495 345.585 336.623 345.725C336.751 345.864 336.833 346.063 336.856 346.319C336.88 346.54 336.833 346.739 336.74 346.937C336.647 347.135 336.495 347.298 336.285 347.426C336.075 347.554 335.819 347.624 335.528 347.659C335.236 347.683 334.98 347.659 334.747 347.578Z" fill="#2740A1"/>
<path d="M338.208 343.988L338.29 345.002L339.653 344.897L339.7 345.538L338.336 345.643L338.418 346.715L339.956 346.587L340.003 347.251L337.649 347.438L337.323 343.382L339.677 343.195L339.735 343.86L338.208 343.988Z" fill="#2740A1"/>
</g>
</svg>
