<svg width="44" height="44" viewBox="0 0 44 44" fill="none" xmlns="http://www.w3.org/2000/svg">
<path d="M4.88889 44C3.54445 44 2.39311 43.5209 1.43489 42.5627C0.47667 41.6044 -0.00162548 40.4539 4.15016e-06 39.1111V4.88889C4.15016e-06 3.54445 0.479115 2.39311 1.43734 1.43489C2.39556 0.47667 3.54608 -0.00162548 4.88889 4.15016e-06H39.1111C40.4556 4.15016e-06 41.6069 0.479115 42.5651 1.43734C43.5233 2.39556 44.0016 3.54608 44 4.88889V39.1111C44 40.4556 43.5209 41.6069 42.5627 42.5651C41.6044 43.5233 40.4539 44.0016 39.1111 44H4.88889ZM4.88889 4.88889V39.1111H39.1111V4.88889H34.2222V22L28.1111 18.3333L22 22V4.88889H4.88889Z" fill="#F9901C"/>
</svg>
