<svg width="49" height="44" viewBox="0 0 49 44" fill="none" xmlns="http://www.w3.org/2000/svg">
<path d="M9.26316 11C9.26316 10.5394 9.44615 10.0976 9.77187 9.77187C10.0976 9.44615 10.5394 9.26316 11 9.26316H21.4211C21.8817 9.26316 22.3235 9.44615 22.6492 9.77187C22.9749 10.0976 23.1579 10.5394 23.1579 11C23.1579 11.4606 22.9749 11.9024 22.6492 12.2281C22.3235 12.5539 21.8817 12.7368 21.4211 12.7368H11C10.5394 12.7368 10.0976 12.5539 9.77187 12.2281C9.44615 11.9024 9.26316 11.4606 9.26316 11ZM11 16.2105C10.5394 16.2105 10.0976 16.3935 9.77187 16.7192C9.44615 17.045 9.26316 17.4867 9.26316 17.9474C9.26316 18.408 9.44615 18.8498 9.77187 19.1755C10.0976 19.5012 10.5394 19.6842 11 19.6842H26.2749C27.9274 18.3088 29.8559 17.3042 31.9301 16.7385C31.7685 16.5714 31.5749 16.4385 31.3608 16.3478C31.1468 16.2571 30.9167 16.2104 30.6842 16.2105H11ZM42.8421 17.9057V6.36842C42.8421 4.77053 41.5453 3.47368 39.9474 3.47368H6.36842C4.77053 3.47368 3.47368 4.77053 3.47368 6.36842V30.6842C3.47368 32.2821 4.77053 33.5789 6.36842 33.5789H21.0181C21.2057 34.7901 21.5368 35.9549 21.9954 37.0526H6.36842C5.53211 37.0526 4.70398 36.8879 3.93133 36.5679C3.15868 36.2478 2.45663 35.7787 1.86527 35.1874C1.2739 34.596 0.80481 33.894 0.484767 33.1213C0.164724 32.3486 0 31.5205 0 30.6842V6.36842C0 4.67941 0.670957 3.05958 1.86527 1.86527C3.05958 0.670956 4.67941 0 6.36842 0H39.9474C41.6364 0 43.2562 0.670956 44.4505 1.86527C45.6448 3.05958 46.3158 4.67941 46.3158 6.36842V20.4021C45.2823 19.4093 44.1126 18.5687 42.8421 17.9057ZM23.2088 23.1579C22.5148 24.2405 21.9629 25.408 21.5669 26.6316H11C10.5394 26.6316 10.0976 26.4486 9.77187 26.1229C9.44615 25.7971 9.26316 25.3554 9.26316 24.8947C9.26316 24.4341 9.44615 23.9923 9.77187 23.6666C10.0976 23.3409 10.5394 23.1579 11 23.1579H23.2088ZM35.8947 40.5263C33.438 40.5263 31.0819 39.5504 29.3447 37.8132C27.6075 36.076 26.6316 33.7199 26.6316 31.2632C26.6316 28.8064 27.6075 26.4503 29.3447 24.7131C31.0819 22.9759 33.438 22 35.8947 22C38.3515 22 40.7076 22.9759 42.4448 24.7131C44.182 26.4503 45.1579 28.8064 45.1579 31.2632C45.1579 33.7199 44.182 36.076 42.4448 37.8132C40.7076 39.5504 38.3515 40.5263 35.8947 40.5263ZM35.8947 44C39.2728 44 42.5124 42.6581 44.901 40.2695C47.2897 37.8808 48.6316 34.6412 48.6316 31.2632C48.6316 27.8851 47.2897 24.6455 44.901 22.2568C42.5124 19.8682 39.2728 18.5263 35.8947 18.5263C32.5167 18.5263 29.2771 19.8682 26.8884 22.2568C24.4998 24.6455 23.1579 27.8851 23.1579 31.2632C23.1579 34.6412 24.4998 37.8808 26.8884 40.2695C29.2771 42.6581 32.5167 44 35.8947 44ZM35.8947 37.0526C37.4302 37.0526 38.9028 36.4427 39.9885 35.3569C41.0742 34.2712 41.6842 32.7986 41.6842 31.2632C41.6842 29.7277 41.0742 28.2551 39.9885 27.1694C38.9028 26.0836 37.4302 25.4737 35.8947 25.4737C34.3593 25.4737 32.8867 26.0836 31.801 27.1694C30.7152 28.2551 30.1053 29.7277 30.1053 31.2632C30.1053 32.7986 30.7152 34.2712 31.801 35.3569C32.8867 36.4427 34.3593 37.0526 35.8947 37.0526Z" fill="#F9901C"/>
</svg>
