<svg width="50" height="46" viewBox="0 0 50 46" fill="none" xmlns="http://www.w3.org/2000/svg">
<path d="M40.0998 24.5155L39.9231 24.3387L39.7463 24.5155L37.3534 26.9084L37.1768 27.085L37.3532 27.2618L41.2953 31.2115H28.0769C26.2153 31.2115 24.4299 31.951 23.1136 33.2674C21.7972 34.5837 21.0577 36.3691 21.0577 38.2307C21.0577 40.0923 21.7972 41.8777 23.1136 43.1941C24.4299 44.5104 26.2153 45.25 28.0769 45.25H31.4615H31.7115V45V41.6153V41.3653H31.4615H28.0769C27.2456 41.3653 26.4483 41.0351 25.8604 40.4472C25.2725 39.8594 24.9423 39.0621 24.9423 38.2307C24.9423 37.3994 25.2725 36.6021 25.8604 36.0142C26.4483 35.4264 27.2456 35.0961 28.0769 35.0961H41.2951L37.3498 39.0475L37.1732 39.2244L37.3502 39.4011L39.7465 41.7923L39.9233 41.9687L40.0998 41.7921L48.5614 33.3306L48.7382 33.1538L48.5614 32.977L40.0998 24.5155Z" fill="#F9901C" stroke="#F9901C" stroke-width="0.5"/>
<path d="M14.7885 31.4615V31.2115H14.5385H4.63457L4.62963 6.39506L23.5871 19.5197L23.5871 19.5197C23.9119 19.7444 24.2974 19.8648 24.6923 19.8648C25.0872 19.8648 25.4727 19.7444 25.7975 19.5197L25.7975 19.5197L44.75 6.4017V21.3077V21.5577H45H48.3846H48.6346V21.3077V4.38462V4.38437C48.6337 3.42077 48.2504 2.49691 47.5691 1.81554C46.8877 1.13418 45.9638 0.750962 45.0002 0.75H45H4.38462C3.4216 0.749999 2.49795 1.13218 1.81648 1.81263C1.13501 2.49307 0.751445 3.41615 0.75 4.37916V4.37954L0.75 31.4615L0.75 31.4619C0.751442 32.4253 1.1348 33.3489 1.81604 34.0301C2.49728 34.7114 3.42082 35.0947 4.38424 35.0962H4.38462H14.5385H14.7885V34.8462V31.4615ZM24.6923 15.5612L8.90969 4.63462H40.4749L24.6923 15.5612Z" fill="#F9901C" stroke="#F9901C" stroke-width="0.5"/>
</svg>
