<svg width="44" height="44" viewBox="0 0 44 44" fill="none" xmlns="http://www.w3.org/2000/svg">
<path d="M22 0C9.8692 0 0 9.8692 0 22V31.1146C0 33.3674 1.9734 35.2 4.4 35.2H6.6C7.18348 35.2 7.74305 34.9682 8.15563 34.5556C8.56821 34.1431 8.8 33.5835 8.8 33V21.6854C8.8 21.1019 8.56821 20.5423 8.15563 20.1298C7.74305 19.7172 7.18348 19.4854 6.6 19.4854H4.6024C5.8256 10.9714 13.1516 4.4 22 4.4C30.8484 4.4 38.1744 10.9714 39.3976 19.4854H37.4C36.8165 19.4854 36.2569 19.7172 35.8444 20.1298C35.4318 20.5423 35.2 21.1019 35.2 21.6854V35.2C35.2 37.6266 33.2266 39.6 30.8 39.6H26.4V37.4H17.6V44H30.8C35.6532 44 39.6 40.0532 39.6 35.2C42.0266 35.2 44 33.3674 44 31.1146V22C44 9.8692 34.1308 0 22 0Z" fill="#F9901C"/>
</svg>
