<svg width="46" height="44" viewBox="0 0 46 44" fill="none" xmlns="http://www.w3.org/2000/svg">
<path d="M9.77778 6.51852C9.77778 5.65411 10.1212 4.8251 10.7324 4.21387C11.3436 3.60264 12.1726 3.25926 13.037 3.25926C13.9014 3.25926 14.7305 3.60264 15.3417 4.21387C15.9529 4.8251 16.2963 5.65411 16.2963 6.51852C16.2963 7.38293 15.9529 8.21193 15.3417 8.82316C14.7305 9.43439 13.9014 9.77778 13.037 9.77778C12.1726 9.77778 11.3436 9.43439 10.7324 8.82316C10.1212 8.21193 9.77778 7.38293 9.77778 6.51852ZM13.037 0C11.3082 0 9.65021 0.68677 8.42775 1.90923C7.20529 3.13169 6.51852 4.7897 6.51852 6.51852C6.51852 8.24734 7.20529 9.90535 8.42775 11.1278C9.65021 12.3503 11.3082 13.037 13.037 13.037C14.7659 13.037 16.4239 12.3503 17.6463 11.1278C18.8688 9.90535 19.5556 8.24734 19.5556 6.51852C19.5556 4.7897 18.8688 3.13169 17.6463 1.90923C16.4239 0.68677 14.7659 0 13.037 0ZM4.07407 16.2963C2.99356 16.2963 1.95731 16.7255 1.19327 17.4896C0.429232 18.2536 0 19.2899 0 20.3704V20.7778C0 21.2259 -1.94267e-07 23.7844 1.71763 26.2533C2.95126 28.0264 4.94919 29.5892 8.07156 30.3926C8.70106 29.1893 9.68913 28.2114 10.899 27.5945C7.10193 27.1855 5.29793 25.6927 4.39348 24.3923C3.66557 23.3265 3.27078 22.0684 3.25926 20.7778V20.3704C3.25926 20.1543 3.34511 19.947 3.49791 19.7942C3.65072 19.6414 3.85797 19.5556 4.07407 19.5556H13.8519C13.8519 18.405 14.0686 17.3067 14.463 16.2963H4.07407ZM43.912 26.2533C42.6784 28.0264 40.6804 29.5892 37.5581 30.3926C36.9285 29.1893 35.9404 28.2115 34.7307 27.5945C38.5277 27.1855 40.3317 25.6927 41.2362 24.3923C41.9641 23.3265 42.3588 22.0684 42.3704 20.7778V20.3704C42.3704 20.1543 42.2845 19.947 42.1317 19.7942C41.9789 19.6414 41.7717 19.5556 41.5556 19.5556H31.7778C31.7778 18.405 31.561 17.3067 31.1667 16.2963H41.5556C42.6361 16.2963 43.6723 16.7255 44.4364 17.4896C45.2004 18.2536 45.6296 19.2899 45.6296 20.3704V20.7778C45.6296 21.2259 45.6296 23.7844 43.912 26.2533ZM29.3333 6.51852C29.3333 5.65411 29.6767 4.8251 30.288 4.21387C30.8992 3.60264 31.7282 3.25926 32.5926 3.25926C33.457 3.25926 34.286 3.60264 34.8972 4.21387C35.5085 4.8251 35.8519 5.65411 35.8519 6.51852C35.8519 7.38293 35.5085 8.21193 34.8972 8.82316C34.286 9.43439 33.457 9.77778 32.5926 9.77778C31.7282 9.77778 30.8992 9.43439 30.288 8.82316C29.6767 8.21193 29.3333 7.38293 29.3333 6.51852ZM32.5926 0C30.8638 0 29.2058 0.68677 27.9833 1.90923C26.7608 3.13169 26.0741 4.7897 26.0741 6.51852C26.0741 8.24734 26.7608 9.90535 27.9833 11.1278C29.2058 12.3503 30.8638 13.037 32.5926 13.037C34.3214 13.037 35.9794 12.3503 37.2019 11.1278C38.4243 9.90535 39.1111 8.24734 39.1111 6.51852C39.1111 4.7897 38.4243 3.13169 37.2019 1.90923C35.9794 0.68677 34.3214 0 32.5926 0ZM22.8148 16.2963C21.9504 16.2963 21.1214 16.6397 20.5102 17.2509C19.8989 17.8621 19.5556 18.6911 19.5556 19.5556C19.5556 20.42 19.8989 21.249 20.5102 21.8602C21.1214 22.4714 21.9504 22.8148 22.8148 22.8148C23.6792 22.8148 24.5082 22.4714 25.1195 21.8602C25.7307 21.249 26.0741 20.42 26.0741 19.5556C26.0741 18.6911 25.7307 17.8621 25.1195 17.2509C24.5082 16.6397 23.6792 16.2963 22.8148 16.2963ZM16.2963 19.5556C16.2963 17.8267 16.9831 16.1687 18.2055 14.9463C19.428 13.7238 21.086 13.037 22.8148 13.037C24.5436 13.037 26.2016 13.7238 27.4241 14.9463C28.6466 16.1687 29.3333 17.8267 29.3333 19.5556C29.3333 21.2844 28.6466 22.9424 27.4241 24.1648C26.2016 25.3873 24.5436 26.0741 22.8148 26.0741C21.086 26.0741 19.428 25.3873 18.2055 24.1648C16.9831 22.9424 16.2963 21.2844 16.2963 19.5556ZM9.77778 33.4074C9.77778 32.3269 10.207 31.2906 10.971 30.5266C11.7351 29.7626 12.7713 29.3333 13.8519 29.3333H31.7778C32.3128 29.3333 32.8426 29.4387 33.3369 29.6435C33.8312 29.8482 34.2803 30.1483 34.6586 30.5266C35.0369 30.9049 35.337 31.354 35.5417 31.8483C35.7465 32.3426 35.8519 32.8724 35.8519 33.4074V33.8148C35.8519 34.263 35.8519 36.8215 34.1342 39.2904C32.3416 41.8668 28.9357 44 22.8148 44C16.6956 44 13.288 41.8668 11.4954 39.2904C9.77778 36.8215 9.77778 34.2646 9.77778 33.8148V33.4074ZM13.8519 32.5926C13.6358 32.5926 13.4285 32.6784 13.2757 32.8312C13.1229 32.9841 13.037 33.1913 13.037 33.4074V33.8148C13.037 34.0837 13.0387 35.803 14.1713 37.4293C15.2305 38.953 17.5283 40.7407 22.8148 40.7407C28.103 40.7407 30.3991 38.953 31.4584 37.4293C32.1863 36.3635 32.5811 35.1054 32.5926 33.8148V33.4074C32.5926 33.1913 32.5067 32.9841 32.3539 32.8312C32.2011 32.6784 31.9939 32.5926 31.7778 32.5926H13.8519Z" fill="#F9901C"/>
</svg>
