<svg width="31" height="30" viewBox="0 0 31 30" fill="none" xmlns="http://www.w3.org/2000/svg">
<rect x="0.705994" width="30" height="30" rx="6" fill="#F9901C"/>
<path d="M15.7057 12.3853C14.2578 12.3853 13.0904 13.5639 13.0904 15.0006C13.0904 16.4374 14.269 17.6159 15.7057 17.6159C17.1425 17.6159 18.321 16.4374 18.321 15.0006C18.321 13.5639 17.1425 12.3853 15.7057 12.3853ZM23.5629 15.0006C23.5629 13.9119 23.5629 12.8455 23.5067 11.7568C23.4506 10.4996 23.1588 9.37717 22.2384 8.46798C21.318 7.54758 20.2067 7.25574 18.9496 7.19962C17.8608 7.14349 16.7945 7.14349 15.7057 7.14349C14.6169 7.14349 13.5506 7.14349 12.4618 7.19962C11.2047 7.25574 10.0822 7.54758 9.17306 8.46798C8.25265 9.38839 7.96082 10.4996 7.90469 11.7568C7.84857 12.8455 7.84857 13.9119 7.84857 15.0006C7.84857 16.0894 7.84857 17.1557 7.90469 18.2445C7.96082 19.5017 8.25265 20.6241 9.17306 21.5333C10.0935 22.4537 11.2047 22.7455 12.4618 22.8017C13.5506 22.8578 14.6169 22.8578 15.7057 22.8578C16.7945 22.8578 17.8608 22.8578 18.9496 22.8017C20.2067 22.7455 21.3292 22.4537 22.2384 21.5333C23.1588 20.6129 23.4506 19.5017 23.5067 18.2445C23.5741 17.167 23.5629 16.0894 23.5629 15.0006ZM15.7057 19.0302C13.472 19.0302 11.6761 17.2343 11.6761 15.0006C11.6761 12.767 13.472 10.971 15.7057 10.971C17.9394 10.971 19.7353 12.767 19.7353 15.0006C19.7353 17.2343 17.9394 19.0302 15.7057 19.0302ZM19.9037 11.7455C19.3874 11.7455 18.9608 11.3302 18.9608 10.8027C18.9608 10.2751 19.3761 9.85982 19.9037 9.85982C20.4312 9.85982 20.8465 10.2751 20.8465 10.8027C20.8494 10.9256 20.8269 11.0478 20.7806 11.1618C20.7343 11.2757 20.665 11.3789 20.5771 11.4649C20.4911 11.5528 20.3879 11.622 20.274 11.6684C20.1601 11.7147 20.0379 11.7372 19.9149 11.7343L19.9037 11.7455Z" fill="white"/>
</svg>
