<svg width="31" height="30" viewBox="0 0 31 30" fill="none" xmlns="http://www.w3.org/2000/svg">
<rect x="0.117554" width="30" height="30" rx="6" fill="#F9901C"/>
<path d="M10.4349 9.44451C10.4347 9.86547 10.2672 10.2691 9.96942 10.5666C9.67161 10.8641 9.26781 11.0311 8.84686 11.0309C8.4259 11.0307 8.02227 10.8633 7.72476 10.5655C7.42725 10.2677 7.26023 9.86388 7.26044 9.44293C7.26065 9.02197 7.42807 8.61834 7.72588 8.32083C8.02369 8.02332 8.42749 7.8563 8.84844 7.85651C9.2694 7.85672 9.67303 8.02414 9.97054 8.32195C10.2681 8.61976 10.4351 9.02356 10.4349 9.44451ZM10.4825 12.2063H7.30805V22.1422H10.4825V12.2063ZM15.4981 12.2063H12.3395V22.1422H15.4663V16.9282C15.4663 14.0236 19.2518 13.7538 19.2518 16.9282V22.1422H22.3866V15.8489C22.3866 10.9524 16.7837 11.1349 15.4663 13.5395L15.4981 12.2063Z" fill="white"/>
</svg>
