<svg width="41" height="34" viewBox="0 0 41 34" fill="none" xmlns="http://www.w3.org/2000/svg">
<path d="M37.297 17.5152L40.1818 20.4206L26.7261 34L19.5758 26.7879L22.4606 23.8824L26.7261 28.1685L37.297 17.5152ZM14.4242 26.7879L20.6061 32.9697H0V28.8485C0 24.2945 7.37697 20.6061 16.4848 20.6061L20.3794 20.8327L14.4242 26.7879ZM16.4848 0C18.6709 0 20.7674 0.868395 22.3131 2.41415C23.8589 3.9599 24.7273 6.0564 24.7273 8.24242C24.7273 10.4285 23.8589 12.5249 22.3131 14.0707C20.7674 15.6165 18.6709 16.4848 16.4848 16.4848C14.2988 16.4848 12.2023 15.6165 10.6566 14.0707C9.11082 12.5249 8.24242 10.4285 8.24242 8.24242C8.24242 6.0564 9.11082 3.9599 10.6566 2.41415C12.2023 0.868395 14.2988 0 16.4848 0Z" fill="#002A93"/>
</svg>
