<svg width="35" height="34" viewBox="0 0 35 34" fill="none" xmlns="http://www.w3.org/2000/svg">
<path d="M34.063 18.1344L32.0454 14.952L33.2421 11.3805C33.3211 11.1442 33.3159 10.888 33.2276 10.6551C33.1392 10.4223 32.9731 10.2271 32.7573 10.1027L29.4926 8.22062L28.8922 4.50162C28.8518 4.25573 28.7279 4.03127 28.5414 3.86604C28.3549 3.7008 28.1171 3.60489 27.8682 3.59444L24.1027 3.44701L21.8434 0.431958C21.6941 0.232434 21.4803 0.0908232 21.2384 0.0312458C20.9964 -0.0283317 20.7413 -0.00219052 20.5165 0.105217L17.1149 1.72299L13.712 0.103888C13.4869 -0.00236099 13.232 -0.0277449 12.9903 0.0320141C12.7486 0.0917731 12.5349 0.233022 12.3851 0.431958L10.1258 3.44701L6.36035 3.59444C6.11158 3.60439 5.87389 3.69999 5.68752 3.86507C5.50115 4.03014 5.37754 4.25454 5.33762 4.50029L4.73727 8.2193L1.47251 10.1014C1.25651 10.2256 1.0901 10.4207 1.0015 10.6535C0.912897 10.8864 0.907556 11.1428 0.986381 11.3791L2.1831 14.9507L0.16687 18.1344C0.0338675 18.3452 -0.0222546 18.5954 0.00799921 18.8427C0.038253 19.0901 0.153025 19.3194 0.332898 19.4919L3.05176 22.0992L2.74627 25.8527C2.72595 26.1011 2.79205 26.3489 2.9334 26.5541C3.07475 26.7593 3.28265 26.9095 3.52195 26.979L7.14134 28.0217L8.61433 31.4897C8.71104 31.7195 8.88459 31.9086 9.1053 32.0247C9.326 32.1407 9.58017 32.1765 9.82434 32.1259L13.5168 31.3688L16.4309 33.7556C16.6288 33.9163 16.8719 34 17.1149 34C17.358 34 17.5997 33.9163 17.799 33.7556L20.7131 31.3688L24.4055 32.1259C24.9062 32.2321 25.415 31.9625 25.6155 31.4897L27.0885 28.0217L30.7079 26.979C30.9473 26.9097 31.1554 26.7596 31.2968 26.5543C31.4382 26.349 31.5042 26.1011 31.4836 25.8527L31.1781 22.0992L33.897 19.4919C34.0768 19.3194 34.1916 19.0901 34.2219 18.8427C34.2521 18.5954 34.196 18.3452 34.063 18.1344ZM24.9209 12.9398L17.362 24.2642C17.0764 24.6865 16.6341 24.9694 16.1945 24.9694C15.7562 24.9694 15.266 24.7237 14.9539 24.4103L9.40462 18.772C9.22273 18.5854 9.12092 18.3352 9.12092 18.0747C9.12092 17.8141 9.22273 17.5639 9.40462 17.3774L10.774 15.9827C10.8637 15.8925 10.9704 15.8209 11.0879 15.772C11.2054 15.7232 11.3315 15.698 11.4587 15.698C11.586 15.698 11.712 15.7232 11.8295 15.772C11.947 15.8209 12.0537 15.8925 12.1434 15.9827L15.7548 19.6513L21.7106 10.7283C21.7811 10.6219 21.8722 10.5306 21.9785 10.4598C22.0847 10.389 22.204 10.34 22.3294 10.3158C22.4548 10.2915 22.5837 10.2925 22.7087 10.3186C22.8337 10.3448 22.9522 10.3955 23.0574 10.468L24.6632 11.5717C25.1055 11.8772 25.2197 12.4922 24.9209 12.9398Z" fill="#002A93"/>
</svg>
