<svg width="35" height="34" viewBox="0 0 35 34" fill="none" xmlns="http://www.w3.org/2000/svg">
<path d="M20.728 19.9469L23.1127 15.8247C23.266 15.5691 23.1979 15.2455 22.9765 15.0581L20.4554 13.0822C20.5065 12.7074 20.5406 12.3156 20.5406 11.9238C20.5406 11.5321 20.5065 11.1403 20.4554 10.7485L22.9765 8.77255C23.1979 8.58517 23.266 8.26152 23.1127 8.00601L20.728 3.88377C20.5747 3.62826 20.2681 3.52605 19.9955 3.62826L17.0316 4.82064C16.4184 4.34369 15.754 3.9519 15.0216 3.64529L14.5787 0.493988C14.5501 0.35622 14.4755 0.23227 14.3672 0.1425C14.2588 0.0527293 14.1232 0.00247788 13.9825 0H9.21294C8.92336 0 8.66785 0.221443 8.61675 0.511022L8.17386 3.66233C7.45843 3.96894 6.77707 4.36072 6.16384 4.83768L3.19992 3.64529C2.92737 3.54309 2.62076 3.64529 2.46745 3.9008L0.0826808 8.02305C-0.0706258 8.27856 -0.00248929 8.6022 0.218954 8.78958L2.74 10.7655C2.68889 11.1403 2.65482 11.5321 2.65482 11.9238C2.65482 12.3156 2.68889 12.7074 2.74 13.0992L0.218954 15.0752C-0.00248929 15.2625 -0.0706258 15.5862 0.0826808 15.8417L2.46745 19.9639C2.62076 20.2194 2.92737 20.3216 3.19992 20.2194L6.16384 19.0271C6.77707 19.504 7.4414 19.8958 8.17386 20.2024L8.61675 23.3537C8.66785 23.6263 8.92336 23.8477 9.21294 23.8477H13.9825C14.2721 23.8477 14.5276 23.6263 14.5787 23.3367L15.0216 20.1854C15.737 19.8788 16.4184 19.487 17.0316 19.01L19.9955 20.2024C20.2681 20.3046 20.5747 20.2024 20.728 19.9469ZM11.5977 15.3307C9.72396 15.3307 8.1909 13.7976 8.1909 11.9238C8.1909 10.0501 9.72396 8.51703 11.5977 8.51703C13.4715 8.51703 15.0045 10.0501 15.0045 11.9238C15.0045 13.7976 13.4715 15.3307 11.5977 15.3307ZM33.9294 28.3958L32.2941 27.1353C32.3282 26.8968 32.3622 26.6413 32.3622 26.3858C32.3622 26.1303 32.3452 25.8748 32.2941 25.6363L33.9123 24.3758C34.0486 24.2565 34.0997 24.0521 33.9975 23.8818L32.4644 21.2415C32.3793 21.0711 32.1749 21.02 31.9875 21.0711L30.0967 21.8377C29.7049 21.5311 29.2791 21.2756 28.8021 21.0882L28.5125 19.0782C28.5058 18.9871 28.4655 18.9018 28.3994 18.8389C28.3332 18.7759 28.2461 18.7398 28.1548 18.7375H25.1057C24.9184 18.7375 24.748 18.8737 24.731 19.0611L24.4414 21.0711C23.9815 21.2756 23.5386 21.514 23.1468 21.8206L21.256 21.0541C21.1692 21.0215 21.0737 21.0207 20.9863 21.0519C20.899 21.083 20.8256 21.1442 20.7791 21.2245L19.246 23.8647C19.1608 24.0351 19.1779 24.2395 19.3312 24.3587L20.9494 25.6192C20.8792 26.1164 20.8792 26.621 20.9494 27.1182L19.3312 28.3788C19.1949 28.498 19.1438 28.7024 19.246 28.8727L20.7791 31.513C20.8642 31.6834 21.0687 31.7345 21.256 31.6834L23.1468 30.9168C23.5386 31.2234 23.9644 31.479 24.4414 31.6663L24.731 33.6764C24.765 33.8637 24.9184 34 25.1057 34H28.1548C28.3422 34 28.5125 33.8637 28.5296 33.6764L28.8192 31.6663C29.2791 31.4619 29.722 31.2234 30.0967 30.9168L32.0045 31.6834C32.1749 31.7515 32.3793 31.6834 32.4815 31.513L34.0145 28.8727C34.1167 28.7194 34.0656 28.515 33.9294 28.3958ZM26.6218 28.6683C26.0116 28.6681 25.4266 28.4255 24.9953 27.9939C24.5641 27.5624 24.3219 26.9772 24.3222 26.367C24.3224 25.7569 24.565 25.1719 24.9965 24.7406C25.4281 24.3094 26.0133 24.0672 26.6235 24.0674C27.2336 24.0677 27.8186 24.3102 28.2499 24.7418C28.6811 25.1734 28.9233 25.7586 28.9231 26.3687C28.9228 26.9789 28.6803 27.5639 28.2487 27.9952C27.8171 28.4264 27.2319 28.6686 26.6218 28.6683Z" fill="#002A93"/>
</svg>
