<svg width="36" height="34" viewBox="0 0 36 34" fill="none" xmlns="http://www.w3.org/2000/svg">
<path d="M35.7895 0H0V10.7368H1.78947V30.4211C1.78947 31.3702 2.16654 32.2806 2.83772 32.9517C3.50891 33.6229 4.41922 34 5.36842 34H30.4211C31.3702 34 32.2806 33.6229 32.9517 32.9517C33.6229 32.2806 34 31.3702 34 30.4211V10.7368H35.7895V0ZM3.57895 3.57895H32.2105V7.15789H3.57895V3.57895ZM30.4211 30.4211H5.36842V10.7368H30.4211V30.4211ZM26.8421 14.3158V25.0526H23.2632V20.4179L17.3758 26.3053L14.8526 23.7821L20.74 17.8947H16.1053V14.3158H26.8421Z" fill="#002A93"/>
</svg>
