<svg width="35" height="38" viewBox="0 0 35 38" fill="none" xmlns="http://www.w3.org/2000/svg">
<path fill-rule="evenodd" clip-rule="evenodd" d="M17.7489 36C20.3556 36 24.8144 32.6 24.8144 19C24.8144 5.4 20.3556 2 17.7489 2C15.1423 2 10.6842 5.6291 10.6842 19C10.6842 32.3709 15.1423 36 17.7489 36Z" stroke="#002A93" stroke-width="3" stroke-linecap="round" stroke-linejoin="round"/>
<path fill-rule="evenodd" clip-rule="evenodd" d="M2.45297 27.9047C3.7563 30.1811 9.04493 32.2932 21.2817 25.1694C33.5185 18.0456 34.349 12.3716 33.0449 10.096C31.7415 7.81884 26.2473 5.8266 14.217 12.8306C2.18583 19.8346 1.14964 25.6284 2.45297 27.9047Z" stroke="#002A93" stroke-width="3" stroke-linecap="round" stroke-linejoin="round"/>
<path fill-rule="evenodd" clip-rule="evenodd" d="M2.453 10.0952C1.14967 12.3716 1.97943 18.0456 14.217 25.1694C26.4538 32.2932 31.7416 30.1811 33.0449 27.9056C34.3482 25.6284 33.312 19.8346 21.2817 12.8306C9.25057 5.8266 3.75633 7.81883 2.453 10.0952Z" stroke="#002A93" stroke-width="3" stroke-linecap="round" stroke-linejoin="round"/>
</svg>
