<svg width="31" height="34" viewBox="0 0 31 34" fill="none" xmlns="http://www.w3.org/2000/svg">
<path d="M15.3 25.5L17.68 23.12L15.0025 20.4H22.1V17H15.0025L17.68 14.28L15.3 11.9L8.5 18.7L15.3 25.5ZM3.4 34C2.465 34 1.6643 33.6668 0.997903 33.0004C0.331503 32.334 -0.00113045 31.5339 2.88625e-06 30.6V6.8C2.88625e-06 5.865 0.333203 5.0643 0.999603 4.3979C1.666 3.7315 2.46614 3.39887 3.4 3.4H10.54C10.9083 2.38 11.5249 1.55833 12.3896 0.935C13.2543 0.311667 14.2245 0 15.3 0C16.3767 0 17.3474 0.311667 18.2121 0.935C19.0768 1.55833 19.6928 2.38 20.06 3.4H27.2C28.135 3.4 28.9357 3.7332 29.6021 4.3996C30.2685 5.066 30.6011 5.86613 30.6 6.8V30.6C30.6 31.535 30.2668 32.3357 29.6004 33.0021C28.934 33.6685 28.1339 34.0011 27.2 34H3.4ZM15.3 5.525C15.6683 5.525 15.9726 5.4043 16.2129 5.1629C16.4532 4.9215 16.5739 4.6172 16.575 4.25C16.575 3.88167 16.4543 3.57737 16.2129 3.3371C15.9715 3.09683 15.6672 2.97613 15.3 2.975C14.9317 2.975 14.6274 3.0957 14.3871 3.3371C14.1468 3.5785 14.0261 3.8828 14.025 4.25C14.025 4.61833 14.1457 4.92263 14.3871 5.1629C14.6285 5.40317 14.9328 5.52387 15.3 5.525Z" fill="#002A93"/>
</svg>
