<svg width="34" height="34" viewBox="0 0 34 34" fill="none" xmlns="http://www.w3.org/2000/svg">
<path d="M15.8667 15.5187V32.4305L14.7333 32.9948L0 25.6763V7.3361L14.7333 0L29.4667 7.3361V20.4564H27.2V9.87552L15.8667 15.5187ZM14.7333 2.53942L10.4656 4.6556L21.4625 10.1929L25.801 8.04149L14.7333 2.53942ZM13.6 29.9087V15.5187L2.26667 9.87552V24.2656L13.6 29.9087ZM3.66562 8.04149L14.7333 13.5436L18.9479 11.4627L7.93333 5.92531L3.66562 8.04149ZM22.6667 29.4855V27.2282H34V29.4855H22.6667ZM22.6667 22.7137H34V24.971H22.6667V22.7137ZM18.1333 34V31.7427H20.4V34H18.1333ZM18.1333 24.971V22.7137H20.4V24.971H18.1333ZM18.1333 29.4855V27.2282H20.4V29.4855H18.1333ZM22.6667 34V31.7427H34V34H22.6667Z" fill="#002A93"/>
<path d="M15.8667 15.5187V32.4305L14.7333 32.9948L0 25.6763V7.3361L14.7333 0L29.4667 7.3361V20.4564H27.2V9.87552L15.8667 15.5187ZM14.7333 2.53942L10.4656 4.6556L21.4625 10.1929L25.801 8.04149L14.7333 2.53942ZM13.6 29.9087V15.5187L2.26667 9.87552V24.2656L13.6 29.9087ZM3.66562 8.04149L14.7333 13.5436L18.9479 11.4627L7.93333 5.92531L3.66562 8.04149ZM22.6667 29.4855V27.2282H34V29.4855H22.6667ZM22.6667 22.7137H34V24.971H22.6667V22.7137ZM18.1333 34V31.7427H20.4V34H18.1333ZM18.1333 24.971V22.7137H20.4V24.971H18.1333ZM18.1333 29.4855V27.2282H20.4V29.4855H18.1333ZM22.6667 34V31.7427H34V34H22.6667Z" stroke="black"/>
</svg>
