<svg width="35" height="34" viewBox="0 0 35 34" fill="none" xmlns="http://www.w3.org/2000/svg">
<path d="M25.0281 8.90359L10.8206 2.81526L6.36341 4.53022C5.9207 4.70215 5.53171 4.96004 5.21365 5.2867L19.3395 11.3406L25.0281 8.90359ZM17.025 0.429788L13.6939 1.71064L27.7574 7.73234L33.4654 5.2867C33.1418 4.95486 32.7503 4.69682 32.3178 4.53022L21.6541 0.429788C20.1642 -0.143263 18.5148 -0.143263 17.025 0.429788ZM20.4141 13.2168L34.368 7.23805C34.3784 7.338 34.3834 7.43844 34.383 7.53893V21.7787C34.3831 22.4301 34.1858 23.0663 33.8171 23.6034C33.4485 24.1405 32.9257 24.5533 32.3178 24.7874L21.6541 28.89C21.2531 29.0442 20.8377 29.1579 20.4141 29.2295V13.2168ZM18.265 22.1806V13.2189L4.31104 7.23805C4.30136 7.33806 4.29634 7.43846 4.296 7.53893V13.062C5.30606 12.7032 6.38919 12.5097 7.51961 12.5097C13.4532 12.5097 18.265 16.8401 18.265 22.1806ZM7.51961 29.7023C9.20878 29.7023 10.769 29.1436 12.0241 28.2044L17.5042 33.6846C17.604 33.7845 17.7224 33.8637 17.8528 33.9179C17.9832 33.972 18.123 33.9999 18.2642 34C18.4054 34.0001 18.5452 33.9724 18.6757 33.9185C18.8062 33.8645 18.9248 33.7854 19.0247 33.6856C19.1246 33.5859 19.2039 33.4674 19.258 33.337C19.3121 33.2066 19.34 33.0668 19.3401 32.9256C19.3402 32.7844 19.3125 32.6446 19.2586 32.5141C19.2046 32.3837 19.1255 32.2651 19.0258 32.1652L13.5456 26.685C14.56 25.3285 15.0868 23.6693 15.0407 21.976C14.9947 20.2828 14.3784 18.6546 13.2918 17.3553C12.2052 16.0559 10.7117 15.1613 9.05335 14.8164C7.39496 14.4715 5.66871 14.6964 4.1541 15.4548C2.63948 16.2132 1.42519 17.4606 0.707836 18.9951C-0.0095193 20.5296 -0.187939 22.2612 0.201466 23.9098C0.590872 25.5583 1.5253 27.0271 2.85346 28.0783C4.18162 29.1296 5.82574 29.7018 7.51961 29.7023ZM7.51961 27.5533C6.09468 27.5533 4.72812 26.9872 3.72055 25.9796C2.71297 24.9721 2.14692 23.6055 2.14692 22.1806C2.14692 20.7556 2.71297 19.3891 3.72055 18.3815C4.72812 17.3739 6.09468 16.8079 7.51961 16.8079C8.94453 16.8079 10.3111 17.3739 11.3187 18.3815C12.3262 19.3891 12.8923 20.7556 12.8923 22.1806C12.8923 23.6055 12.3262 24.9721 11.3187 25.9796C10.3111 26.9872 8.94453 27.5533 7.51961 27.5533Z" fill="#002A93"/>
</svg>
