<svg width="38" height="34" viewBox="0 0 38 34" fill="none" xmlns="http://www.w3.org/2000/svg">
<path fill-rule="evenodd" clip-rule="evenodd" d="M32.3 3.4H5.1C4.64913 3.4 4.21673 3.57911 3.89792 3.89792C3.57911 4.21673 3.4 4.64913 3.4 5.1V28.9C3.4 29.3509 3.57911 29.7833 3.89792 30.1021C4.21673 30.4209 4.64913 30.6 5.1 30.6H32.3C32.7509 30.6 33.1833 30.4209 33.5021 30.1021C33.8209 29.7833 34 29.3509 34 28.9V5.1C34 4.64913 33.8209 4.21673 33.5021 3.89792C33.1833 3.57911 32.7509 3.4 32.3 3.4ZM5.1 0C3.7474 0 2.45019 0.53732 1.49376 1.49376C0.53732 2.45019 0 3.7474 0 5.1V28.9C0 30.2526 0.53732 31.5498 1.49376 32.5062C2.45019 33.4627 3.7474 34 5.1 34H32.3C33.6526 34 34.9498 33.4627 35.9062 32.5062C36.8627 31.5498 37.4 30.2526 37.4 28.9V5.1C37.4 3.7474 36.8627 2.45019 35.9062 1.49376C34.9498 0.53732 33.6526 0 32.3 0H5.1ZM8.5 8.5H11.9V11.9H8.5V8.5ZM17 8.5C16.5491 8.5 16.1167 8.67911 15.7979 8.99792C15.4791 9.31673 15.3 9.74913 15.3 10.2C15.3 10.6509 15.4791 11.0833 15.7979 11.4021C16.1167 11.7209 16.5491 11.9 17 11.9H27.2C27.6509 11.9 28.0833 11.7209 28.4021 11.4021C28.7209 11.0833 28.9 10.6509 28.9 10.2C28.9 9.74913 28.7209 9.31673 28.4021 8.99792C28.0833 8.67911 27.6509 8.5 27.2 8.5H17ZM11.9 15.3H8.5V18.7H11.9V15.3ZM15.3 17C15.3 16.5491 15.4791 16.1167 15.7979 15.7979C16.1167 15.4791 16.5491 15.3 17 15.3H27.2C27.6509 15.3 28.0833 15.4791 28.4021 15.7979C28.7209 16.1167 28.9 16.5491 28.9 17C28.9 17.4509 28.7209 17.8833 28.4021 18.2021C28.0833 18.5209 27.6509 18.7 27.2 18.7H17C16.5491 18.7 16.1167 18.5209 15.7979 18.2021C15.4791 17.8833 15.3 17.4509 15.3 17ZM11.9 22.1H8.5V25.5H11.9V22.1ZM15.3 23.8C15.3 23.3491 15.4791 22.9167 15.7979 22.5979C16.1167 22.2791 16.5491 22.1 17 22.1H27.2C27.6509 22.1 28.0833 22.2791 28.4021 22.5979C28.7209 22.9167 28.9 23.3491 28.9 23.8C28.9 24.2509 28.7209 24.6833 28.4021 25.0021C28.0833 25.3209 27.6509 25.5 27.2 25.5H17C16.5491 25.5 16.1167 25.3209 15.7979 25.0021C15.4791 24.6833 15.3 24.2509 15.3 23.8Z" fill="#002A93"/>
</svg>
