<svg width="34" height="34" viewBox="0 0 34 34" fill="none" xmlns="http://www.w3.org/2000/svg">
<path d="M16.0878 26.5366C13.4341 26.3984 11.1951 25.3756 9.37073 23.4683C7.54634 21.561 6.63415 19.2667 6.63415 16.5854C6.63415 13.8211 7.60163 11.4715 9.53658 9.53658C11.4715 7.60163 13.8211 6.63415 16.5854 6.63415C19.2667 6.63415 21.561 7.54634 23.4683 9.37073C25.3756 11.1951 26.3984 13.4341 26.5366 16.0878L23.0537 15.0512C22.6943 13.5585 21.9203 12.3356 20.7317 11.3825C19.5431 10.4294 18.161 9.95232 16.5854 9.95122C14.761 9.95122 13.1992 10.6008 11.9 11.9C10.6008 13.1992 9.95122 14.761 9.95122 16.5854C9.95122 18.161 10.4283 19.5431 11.3825 20.7317C12.3367 21.9203 13.5596 22.6943 15.0512 23.0537L16.0878 26.5366ZM18.078 33.0878C17.8293 33.1431 17.5805 33.1707 17.3317 33.1707H16.5854C14.2911 33.1707 12.135 32.7351 10.1171 31.8638C8.09919 30.9925 6.3439 29.8111 4.85122 28.3195C3.35854 26.8268 2.17711 25.0715 1.30693 23.0537C0.436748 21.0358 0.00110569 18.8797 0 16.5854C0 14.2911 0.435642 12.135 1.30693 10.1171C2.17821 8.09919 3.35964 6.3439 4.85122 4.85122C6.3439 3.35854 8.09919 2.17711 10.1171 1.30693C12.135 0.436748 14.2911 0.00110569 16.5854 0C18.8797 0 21.0358 0.435642 23.0537 1.30693C25.0715 2.17821 26.8268 3.35964 28.3195 4.85122C29.8122 6.3439 30.9942 8.09919 31.8655 10.1171C32.7367 12.135 33.1718 14.2911 33.1707 16.5854V17.3317C33.1707 17.5805 33.1431 17.8293 33.0878 18.078L29.8537 17.0829V16.5854C29.8537 12.8813 28.5683 9.7439 25.9976 7.17317C23.4268 4.60244 20.2894 3.31707 16.5854 3.31707C12.8813 3.31707 9.7439 4.60244 7.17317 7.17317C4.60244 9.7439 3.31707 12.8813 3.31707 16.5854C3.31707 20.2894 4.60244 23.4268 7.17317 25.9976C9.7439 28.5683 12.8813 29.8537 16.5854 29.8537H17.0829L18.078 33.0878ZM30.7244 34L23.6341 26.9098L21.561 33.1707L16.5854 16.5854L33.1707 21.561L26.9098 23.6341L34 30.7244L30.7244 34Z" fill="#002A93"/>
</svg>
