<svg width="44" height="34" viewBox="0 0 44 34" fill="none" xmlns="http://www.w3.org/2000/svg">
<path d="M1.21429 0C0.892237 0 0.583379 0.127934 0.355656 0.355656C0.127934 0.583379 0 0.892237 0 1.21429C0 1.53633 0.127934 1.84519 0.355656 2.07292C0.583379 2.30064 0.892237 2.42857 1.21429 2.42857H37.6429C37.9649 2.42857 38.2738 2.30064 38.5015 2.07292C38.7292 1.84519 38.8571 1.53633 38.8571 1.21429C38.8571 0.892237 38.7292 0.583379 38.5015 0.355656C38.2738 0.127934 37.9649 0 37.6429 0H1.21429ZM1.21429 12.1429C0.892237 12.1429 0.583379 12.2708 0.355656 12.4985C0.127934 12.7262 0 13.0351 0 13.3571C0 13.6792 0.127934 13.9881 0.355656 14.2158C0.583379 14.4435 0.892237 14.5714 1.21429 14.5714H22.4813C23.2414 13.6486 24.1254 12.8326 25.1041 12.1429H1.21429ZM19.9313 26.7143C19.7067 25.9204 19.5563 25.1074 19.482 24.2857H1.21429C0.892237 24.2857 0.583379 24.4136 0.355656 24.6414C0.127934 24.8691 0 25.178 0 25.5C0 25.822 0.127934 26.1309 0.355656 26.3586C0.583379 26.5864 0.892237 26.7143 1.21429 26.7143H19.9313ZM43.7143 23.0714C43.7143 25.9699 42.5629 28.7496 40.5134 30.7991C38.4639 32.8486 35.6842 34 32.7857 34C29.8873 34 27.1076 32.8486 25.058 30.7991C23.0085 28.7496 21.8571 25.9699 21.8571 23.0714C21.8571 20.173 23.0085 17.3933 25.058 15.3438C27.1076 13.2943 29.8873 12.1429 32.7857 12.1429C35.6842 12.1429 38.4639 13.2943 40.5134 15.3438C42.5629 17.3933 43.7143 20.173 43.7143 23.0714ZM38.1601 22.0101L30.9473 18.003C30.7624 17.9002 30.554 17.8475 30.3425 17.85C30.131 17.8526 29.9238 17.9103 29.7415 18.0176C29.5592 18.1248 29.4081 18.2778 29.3031 18.4614C29.1981 18.645 29.1428 18.8528 29.1429 19.0643V27.0786C29.1428 27.2901 29.1981 27.4979 29.3031 27.6815C29.4081 27.8651 29.5592 28.0181 29.7415 28.1253C29.9238 28.2325 30.131 28.2903 30.3425 28.2928C30.554 28.2954 30.7624 28.2426 30.9473 28.1399L38.1601 24.1327C38.3493 24.0275 38.507 23.8737 38.6167 23.6871C38.7265 23.5005 38.7844 23.2879 38.7844 23.0714C38.7844 22.8549 38.7265 22.6424 38.6167 22.4558C38.507 22.2692 38.3493 22.1153 38.1601 22.0101Z" fill="#002A93"/>
</svg>
