<svg width="43" height="34" viewBox="0 0 43 34" fill="none" xmlns="http://www.w3.org/2000/svg">
<path d="M23.7709 3.59483L22.1853 0.420851C21.9233 -0.130279 21.1036 -0.1502 20.8147 0.420851L19.2291 3.59483L15.7152 4.09284C15.0903 4.18581 14.8216 4.94942 15.2852 5.40759L17.8383 7.86444L17.2336 11.3239C17.1395 11.9415 17.7845 12.4196 18.3623 12.134L21.5134 10.4873L24.6444 12.1075C25.2222 12.393 25.8739 11.9149 25.7731 11.2974L25.1684 7.83788L27.7216 5.40759C28.1784 4.95606 27.9164 4.19245 27.2916 4.09284L23.7777 3.59483H23.7709ZM17.2 17.0013C16.0108 17.0013 15.05 17.9508 15.05 19.1261V31.8752C15.05 33.0505 16.0108 34 17.2 34H25.8C26.9892 34 27.95 33.0505 27.95 31.8752V19.1261C27.95 17.9508 26.9892 17.0013 25.8 17.0013H17.2ZM2.15 21.2509C0.960781 21.2509 0 22.2005 0 23.3758V31.8752C0 33.0505 0.960781 34 2.15 34H10.75C11.9392 34 12.9 33.0505 12.9 31.8752V23.3758C12.9 22.2005 11.9392 21.2509 10.75 21.2509H2.15ZM30.1 27.6255V31.8752C30.1 33.0505 31.0608 34 32.25 34H40.85C42.0392 34 43 33.0505 43 31.8752V27.6255C43 26.4502 42.0392 25.5006 40.85 25.5006H32.25C31.0608 25.5006 30.1 26.4502 30.1 27.6255Z" fill="#002A93"/>
</svg>
