<svg width="39" height="38" viewBox="0 0 39 38" fill="none" xmlns="http://www.w3.org/2000/svg">
<path d="M5.85039 25.1283C4.83303 24.6385 3.95364 23.9031 3.29159 22.9884C2.62954 22.0737 2.20566 21.0086 2.05822 19.8892C1.91079 18.7697 2.04442 17.6312 2.44707 16.5763C2.84972 15.5214 3.50871 14.5834 4.36456 13.8468M4.41556 13.7091C3.85802 12.8749 3.61366 11.8702 3.72572 10.873C3.83779 9.87587 4.29906 8.95051 5.02787 8.26078C5.75669 7.57106 6.70604 7.16144 7.70786 7.10446C8.70968 7.04747 9.69936 7.34679 10.5017 7.94943M10.9063 8.05993C10.6351 7.48369 10.4969 6.85388 10.5018 6.21703C10.5068 5.58018 10.6548 4.95259 10.9349 4.38064C11.215 3.8087 11.6201 3.30702 12.1202 2.91269C12.6203 2.51836 13.2027 2.24146 13.8242 2.10246C14.4457 1.96346 15.0905 1.96592 15.7109 2.10964C16.3314 2.25337 16.9116 2.5347 17.4086 2.93282C17.9057 3.33095 18.307 3.8357 18.5828 4.40976C18.8585 4.98383 19.0018 5.61253 19.0019 6.24939M19.0019 6.24939V32.5999M19.0019 6.24939C19.002 5.61253 19.1452 4.98383 19.421 4.40976C19.6967 3.8357 20.098 3.33095 20.5951 2.93282C21.0922 2.5347 21.6724 2.25337 22.2928 2.10964C22.9132 1.96592 23.558 1.96346 24.1795 2.10246C24.8011 2.24146 25.3834 2.51836 25.8835 2.91269C26.3836 3.30702 26.7887 3.8087 27.0688 4.38064C27.3489 4.95259 27.4969 5.58018 27.5019 6.21703C27.5069 6.85388 27.3686 7.48369 27.0974 8.05993M19.0019 32.5999C19.0019 33.5017 18.6436 34.3665 18.006 35.0041C17.3684 35.6418 16.5035 36 15.6018 36C14.7 36 13.8352 35.6418 13.1976 35.0041C12.5599 34.3665 12.2017 33.5017 12.2017 32.5999M19.0019 32.5999C19.0019 33.5017 19.3601 34.3665 19.9977 35.0041C20.6354 35.6418 21.5002 36 22.4019 36M19.0019 10.4995C19.0019 11.8521 19.5392 13.1493 20.4956 14.1058C21.4521 15.0623 22.7493 15.5996 24.102 15.5996M33.6392 13.8468C34.3814 14.4845 34.9769 15.2751 35.3848 16.1646C35.7927 17.054 36.0033 18.0212 36.0022 18.9997C36.0022 20.1948 35.6945 21.3185 35.1522 22.2943M33.5882 13.7091C34.1457 12.8749 34.3901 11.8702 34.278 10.873C34.1659 9.87587 33.7047 8.95051 32.9758 8.26078C32.247 7.57106 31.2977 7.16144 30.2959 7.10446C29.294 7.04747 28.3044 7.34679 27.502 7.94943M33.4522 33.4499L36.0022 36M25.802 30.0499C25.802 31.1771 26.2498 32.2581 27.0468 33.0551C27.8439 33.8522 28.9249 34.3 30.0521 34.3C31.1793 34.3 32.2603 33.8522 33.0574 33.0551C33.8544 32.2581 34.3022 31.1771 34.3022 30.0499C34.3022 28.9227 33.8544 27.8417 33.0574 27.0446C32.2603 26.2476 31.1793 25.7998 30.0521 25.7998C28.9249 25.7998 27.8439 26.2476 27.0468 27.0446C26.2498 27.8417 25.802 28.9227 25.802 30.0499Z" stroke="#002A93" stroke-width="4" stroke-linecap="round" stroke-linejoin="round"/>
</svg>
