<svg width="34" height="34" viewBox="0 0 34 34" fill="none" xmlns="http://www.w3.org/2000/svg">
<path d="M32.5833 15.5833H31.0958C30.7647 12.3335 29.3225 9.29735 27.0126 6.98744C24.7027 4.67754 21.6665 3.2353 18.4167 2.90417V0H15.5833V2.90417C12.3335 3.2353 9.29735 4.67754 6.98744 6.98744C4.67754 9.29735 3.2353 12.3335 2.90417 15.5833H0V18.4167H2.90417C3.2353 21.6665 4.67754 24.7027 6.98744 27.0126C9.29735 29.3225 12.3335 30.7647 15.5833 31.0958V34H18.4167V31.0958C21.6665 30.7647 24.7027 29.3225 27.0126 27.0126C29.3225 24.7027 30.7647 21.6665 31.0958 18.4167H34V15.5833H32.5833ZM19.4409 15.5833C19.1943 15.1587 18.8413 14.8057 18.4167 14.5591V11.1648C19.4871 11.4262 20.4652 11.9764 21.2444 12.7556C22.0236 13.5348 22.5738 14.5129 22.8352 15.5833H19.4409ZM22.8352 18.4167C22.5738 19.4871 22.0236 20.4652 21.2444 21.2444C20.4652 22.0236 19.4871 22.5738 18.4167 22.8352V19.4409C18.8413 19.1943 19.1943 18.8413 19.4409 18.4167H22.8352ZM15.5833 5.76583V8.98592C13.9409 9.27879 12.4277 10.0683 11.248 11.248C10.0683 12.4277 9.27879 13.9409 8.98592 15.5833H5.76442C6.08231 13.0904 7.21907 10.7736 8.99624 8.99671C10.7734 7.21979 13.0904 6.08337 15.5833 5.76583ZM14.5591 15.5833H11.1648C11.4263 14.513 11.9766 13.5349 12.7558 12.7558C13.5349 11.9766 14.513 11.4263 15.5833 11.1648V14.5591C15.1587 14.8057 14.8057 15.1587 14.5591 15.5833ZM15.5833 19.4409V22.8352C14.5129 22.5738 13.5348 22.0236 12.7556 21.2444C11.9764 20.4652 11.4262 19.4871 11.1648 18.4167H14.5591C14.8057 18.8413 15.1587 19.1943 15.5833 19.4409ZM5.76583 18.4167H8.98592C9.27879 20.0591 10.0683 21.5723 11.248 22.752C12.4277 23.9317 13.9409 24.7212 15.5833 25.0141V28.2356C13.0904 27.9177 10.7736 26.7809 8.99671 25.0038C7.21979 23.2266 6.08337 20.9096 5.76583 18.4167ZM18.4167 28.2342V25.0141C20.0591 24.7212 21.5723 23.9317 22.752 22.752C23.9317 21.5723 24.7212 20.0591 25.0141 18.4167H28.2356C27.9177 20.9096 26.7809 23.2264 25.0038 25.0033C23.2266 26.7802 20.9096 27.9166 18.4167 28.2342ZM25.0141 15.5833C24.7212 13.9409 23.9317 12.4277 22.752 11.248C21.5723 10.0683 20.0591 9.27879 18.4167 8.98592V5.76442C20.9096 6.08231 23.2264 7.21907 25.0033 8.99624C26.7802 10.7734 27.9166 13.0904 28.2342 15.5833H25.0141Z" fill="#002A93"/>
</svg>
