<svg width="38" height="43" viewBox="0 0 38 43" fill="none" xmlns="http://www.w3.org/2000/svg">
<path d="M18.905 10.7651L26.193 14.9751L18.905 19.1821L11.617 14.9731L18.905 10.7651Z" stroke="#002A93" stroke-width="3" stroke-linecap="round" stroke-linejoin="round"/>
<path d="M11.617 14.9741V23.3921L18.905 27.6021M18.905 27.6021L26.193 23.3921V14.9741M18.905 27.6021V19.1831" stroke="#002A93" stroke-width="3" stroke-linecap="round" stroke-linejoin="round"/>
<path d="M35.81 18.9061C35.8102 15.8454 34.9795 12.8421 33.4064 10.2166C31.8334 7.59112 29.5771 5.44194 26.8782 3.99838C24.1793 2.55483 21.1392 1.87106 18.0822 2.02004C15.0251 2.16902 12.0659 3.14515 9.52017 4.84428C6.97446 6.54342 4.93781 8.9018 3.62751 11.6678C2.3172 14.4338 1.78242 17.5037 2.08021 20.5498C2.37801 23.596 3.49721 26.5041 5.31839 28.964C7.13958 31.4238 9.59443 33.3431 12.421 34.5171L18.905 41.0011L25.389 34.5171C28.4738 33.2355 31.1099 31.0688 32.9644 28.2904C34.8189 25.512 35.8097 22.2465 35.81 18.9061Z" stroke="#002A93" stroke-width="3" stroke-linecap="round" stroke-linejoin="round"/>
</svg>
