<svg width="34" height="34" viewBox="0 0 34 34" fill="none" xmlns="http://www.w3.org/2000/svg">
<g clip-path="url(#clip0_1_389)">
<path d="M15.0408 19.6024C16.2506 19.6024 17.4109 19.1218 18.2664 18.2663M15.0408 19.6024C13.8309 19.6024 12.6707 19.1218 11.8152 18.2663M15.0408 19.6024V23.0237M18.2664 18.2663C19.1218 17.4109 19.6024 16.2506 19.6024 15.0407M18.2664 18.2663L20.6848 20.6847M19.6024 15.0407C19.6024 13.8309 19.1218 12.6706 18.2664 11.8152M19.6024 15.0407H23.0237M18.2664 11.8152C17.4109 10.9597 16.2506 10.4791 15.0408 10.4791M18.2664 11.8152L20.6848 9.39675M15.0408 10.4791C13.8309 10.4791 12.6707 10.9597 11.8152 11.8152M15.0408 10.4791V7.05783M11.8152 11.8152C10.9597 12.6706 10.4791 13.8309 10.4791 15.0407M11.8152 11.8152L9.39678 9.39675M10.4791 15.0407C10.4791 16.2506 10.9597 17.4109 11.8152 18.2663M10.4791 15.0407H7.05786M11.8152 18.2663L9.39678 20.6847M14.28 7.05783H15.8015M20.1479 8.85841L21.2231 9.93508M23.0237 14.28V15.8015M21.2231 20.1478L20.1479 21.2231M15.8015 23.0237H14.28M9.93369 21.2231L8.85844 20.1478M7.05786 15.8015V14.28M8.85844 9.93366L9.93369 8.85841" stroke="#002A93" stroke-width="3" stroke-linecap="round" stroke-linejoin="round"/>
<path d="M32.9375 32.9375L24.9248 24.9248M15.0407 29.019C22.7616 29.019 29.019 22.7602 29.019 15.0407C29.019 7.31992 22.7602 1.0625 15.0407 1.0625C7.31992 1.0625 1.0625 7.32133 1.0625 15.0407C1.0625 22.7616 7.32133 29.019 15.0407 29.019Z" stroke="#002A93" stroke-width="3" stroke-linecap="round" stroke-linejoin="round"/>
</g>
<defs>
<clipPath id="clip0_1_389">
<rect width="34" height="34" fill="white"/>
</clipPath>
</defs>
</svg>
