<svg width="34" height="34" viewBox="0 0 34 34" fill="none" xmlns="http://www.w3.org/2000/svg">
<path d="M4.85714 4.85714C4.85714 3.56895 5.36888 2.33352 6.27977 1.42262C7.19066 0.511733 8.42609 0 9.71429 0C11.0025 0 12.2379 0.511733 13.1488 1.42262C14.0597 2.33352 14.5714 3.56895 14.5714 4.85714C14.5714 6.14534 14.0597 7.38077 13.1488 8.29166C12.2379 9.20255 11.0025 9.71429 9.71429 9.71429C8.42609 9.71429 7.19066 9.20255 6.27977 8.29166C5.36888 7.38077 4.85714 6.14534 4.85714 4.85714ZM21.3204 8.704L21.4224 8.78171C22.4529 9.54552 23.7436 9.87073 25.0129 9.68638C26.2822 9.50204 27.4271 8.8231 28.1977 7.79774C28.9683 6.77238 29.302 5.48384 29.126 4.21333C28.9501 2.94282 28.2787 1.79348 27.2584 1.01614C26.2382 0.238807 24.9519 -0.103417 23.6802 0.0641559C22.4086 0.231729 21.2549 0.895493 20.4708 1.91059C19.6867 2.92569 19.336 4.20971 19.4952 5.48244C19.6544 6.75517 20.3105 7.91326 21.3204 8.704ZM12.7937 12.1429C13.0987 11.5653 13.5172 11.0551 14.0239 10.6429C14.5306 10.2308 15.1153 9.92506 15.7429 9.74408C16.3706 9.5631 17.0283 9.51057 17.6766 9.58963C18.325 9.6687 18.9508 9.87774 19.5166 10.2042C20.0823 10.5307 20.5764 10.968 20.9692 11.4899C21.3621 12.0117 21.6456 12.6075 21.8029 13.2414C21.9602 13.8754 21.988 14.5346 21.8847 15.1796C21.7813 15.8246 21.5489 16.4421 21.2014 16.9951C20.5329 18.0592 19.478 18.8227 18.2583 19.1253C17.0387 19.4279 15.7492 19.246 14.6609 18.6179C13.5725 17.9898 12.7699 16.9643 12.4217 15.7568C12.0736 14.5494 12.2069 13.254 12.7937 12.1429ZM3.64286 12.1429H10.1271C9.69552 13.3755 9.60167 14.7012 9.85534 15.9823C10.109 17.2635 10.7009 18.4534 11.5697 19.4286H10.9286C9.67649 19.4284 8.45495 19.8152 7.43115 20.536C6.40735 21.2568 5.63132 22.2763 5.20929 23.4551C4.3941 23.1277 3.63083 22.6835 2.94343 22.1364C1.11714 20.6671 0 18.496 0 15.7857C0 14.8196 0.3838 13.893 1.06697 13.2098C1.75014 12.5267 2.67671 12.1429 3.64286 12.1429ZM23.0714 19.4286C24.3232 19.4285 25.5443 19.8154 26.5677 20.5362C27.5911 21.257 28.3667 22.2765 28.7883 23.4551C29.614 23.1176 30.379 22.678 31.0566 22.1364C32.8829 20.6671 34 18.496 34 15.7857C34 14.8196 33.6162 13.893 32.933 13.2098C32.2499 12.5267 31.3233 12.1429 30.3571 12.1429H23.8729C24.14 12.903 24.2857 13.7214 24.2857 14.5714C24.288 16.364 23.6271 18.094 22.4303 19.4286H23.0714ZM26.4399 24.1109C26.6171 24.5383 26.7143 25.0094 26.7143 25.5C26.7143 28.2103 25.5996 30.3814 23.7709 31.8507C21.9713 33.2957 19.5573 34 17 34C14.4427 34 12.0287 33.2957 10.2291 31.8507C8.40286 30.3814 7.28571 28.2103 7.28571 25.5C7.28443 25.0213 7.37778 24.547 7.5604 24.1044C7.74302 23.6619 8.0113 23.2598 8.34982 22.9213C8.68835 22.5827 9.09045 22.3144 9.533 22.1318C9.97555 21.9492 10.4498 21.8559 10.9286 21.8571H23.0714C23.793 21.857 24.4983 22.0711 25.098 22.4723C25.6977 22.8736 26.1647 23.4438 26.4399 24.1109Z" fill="#002A93"/>
</svg>
