<svg width="36" height="34" viewBox="0 0 36 34" fill="none" xmlns="http://www.w3.org/2000/svg">
<path d="M32.1111 3.77778H1.88889V0H32.1111V3.77778ZM18.8889 21.7222C18.8889 23.8756 19.7011 26.18 20.7778 28.3333V30.2222H1.88889V18.8889H0V15.1111L1.88889 5.66667H32.1111L33.4333 12.2778C32.1111 11.6733 30.7511 11.3333 29.2778 11.3333C23.6111 11.3333 18.8889 16.0556 18.8889 21.7222ZM17 18.8889H5.66667V26.4444H17V18.8889ZM35.8889 21.7222C35.8889 26.6333 29.2778 34 29.2778 34C29.2778 34 22.6667 26.6333 22.6667 21.7222C22.6667 18.1333 25.6889 15.1111 29.2778 15.1111C32.8667 15.1111 35.8889 18.1333 35.8889 21.7222ZM31.5444 21.9111C31.5444 20.7778 30.4111 19.6444 29.2778 19.6444C28.1444 19.6444 27.0111 20.5889 27.0111 21.9111C27.0111 23.0444 27.9556 24.1778 29.2778 24.1778C30.6 24.1778 31.7333 23.0444 31.5444 21.9111Z" fill="#002A93"/>
</svg>
