<svg width="30" height="30" viewBox="0 0 30 30" fill="none" xmlns="http://www.w3.org/2000/svg">
<path d="M2.9879 23.9035H5.9758V30.0003L13.5964 23.9035H20.9153C22.5631 23.9035 23.9032 22.5634 23.9032 20.9156V8.96397C23.9032 7.31615 22.5631 5.97607 20.9153 5.97607H2.9879C1.34007 5.97607 0 7.31615 0 8.96397V20.9156C0 22.5634 1.34007 23.9035 2.9879 23.9035Z" fill="#F5F5F5"/>
<path d="M26.8912 0H8.96376C7.31593 0 5.97586 1.34007 5.97586 2.9879H23.9033C25.5511 2.9879 26.8912 4.32797 26.8912 5.9758V17.9274C28.539 17.9274 29.8791 16.5873 29.8791 14.9395V2.9879C29.8791 1.34007 28.539 0 26.8912 0Z" fill="#F5F5F5"/>
</svg>
