<svg width="18" height="18" viewBox="0 0 18 18" fill="none" xmlns="http://www.w3.org/2000/svg">
<path d="M8.99998 6.03645C7.35896 6.03645 6.03597 7.37217 6.03597 9.00047C6.03597 10.6288 7.37168 11.9645 8.99998 11.9645C10.6283 11.9645 11.964 10.6288 11.964 9.00047C11.964 7.37217 10.6283 6.03645 8.99998 6.03645ZM17.9047 9.00047C17.9047 7.76652 17.9047 6.55802 17.8411 5.32407C17.7775 3.89931 17.4468 2.6272 16.4037 1.59679C15.3605 0.553662 14.1011 0.222914 12.6764 0.159309C11.4424 0.0957031 10.2339 0.0957031 8.99998 0.0957031C7.76603 0.0957031 6.55753 0.0957031 5.32358 0.159309C3.89882 0.222914 2.62671 0.553662 1.5963 1.59679C0.553174 2.63992 0.222426 3.89931 0.15882 5.32407C0.0952148 6.55802 0.0952148 7.76652 0.0952148 9.00047C0.0952148 10.2344 0.0952148 11.4429 0.15882 12.6769C0.222426 14.1016 0.553174 15.3737 1.5963 16.4041C2.63943 17.4473 3.89882 17.778 5.32358 17.8416C6.55753 17.9052 7.76603 17.9052 8.99998 17.9052C10.2339 17.9052 11.4424 17.9052 12.6764 17.8416C14.1011 17.778 15.3732 17.4473 16.4037 16.4041C17.4468 15.361 17.7775 14.1016 17.8411 12.6769C17.9175 11.4556 17.9047 10.2344 17.9047 9.00047ZM8.99998 13.5673C6.46848 13.5673 4.43311 11.532 4.43311 9.00047C4.43311 6.46897 6.46848 4.43359 8.99998 4.43359C11.5315 4.43359 13.5669 6.46897 13.5669 9.00047C13.5669 11.532 11.5315 13.5673 8.99998 13.5673ZM13.7577 5.31135C13.1725 5.31135 12.6891 4.84067 12.6891 4.24278C12.6891 3.64489 13.1598 3.17421 13.7577 3.17421C14.3556 3.17421 14.8262 3.64489 14.8262 4.24278C14.8295 4.38212 14.804 4.52064 14.7515 4.64974C14.699 4.77885 14.6205 4.89579 14.5209 4.99332C14.4234 5.0929 14.3065 5.17137 14.1774 5.22389C14.0482 5.27641 13.9097 5.30185 13.7704 5.29863L13.7577 5.31135Z" fill="white"/>
</svg>
