<svg width="18" height="18" viewBox="0 0 18 18" fill="none" xmlns="http://www.w3.org/2000/svg">
<path d="M3.6929 2.70404C3.69266 3.18112 3.50291 3.63857 3.16539 3.97575C2.82788 4.31293 2.37024 4.50222 1.89316 4.50198C1.41607 4.50174 0.958627 4.31199 0.621448 3.97448C0.284268 3.63696 0.0949765 3.17932 0.0952151 2.70224C0.0954536 2.22516 0.285203 1.76771 0.62272 1.43053C0.960236 1.09335 1.41787 0.904059 1.89496 0.904297C2.37204 0.904536 2.82949 1.09428 3.16667 1.4318C3.50385 1.76932 3.69314 2.22696 3.6929 2.70404ZM3.74686 5.83402H0.14918V17.0948H3.74686V5.83402ZM9.4312 5.83402H5.85151V17.0948H9.39523V11.1856C9.39523 7.8937 13.6855 7.58789 13.6855 11.1856V17.0948H17.2382V9.96237C17.2382 4.41294 10.8883 4.6198 9.39523 7.34505L9.4312 5.83402Z" fill="white"/>
</svg>
