<svg width="141" height="40" viewBox="0 0 141 40" fill="none" xmlns="http://www.w3.org/2000/svg">
<path d="M47.1657 28.7056C47.1657 28.294 47.0201 27.9777 46.729 27.7569C46.4378 27.536 45.9132 27.3026 45.1578 27.0591C44.4023 26.8131 43.8024 26.5722 43.3607 26.3363C42.1585 25.6862 41.5561 24.8103 41.5561 23.7109C41.5561 23.1387 41.7167 22.6292 42.0405 22.1799C42.3643 21.7306 42.8261 21.3818 43.431 21.1283C44.0358 20.8773 44.7135 20.7493 45.464 20.7493C46.2195 20.7493 46.8946 20.8873 47.4869 21.1609C48.0793 21.4345 48.5386 21.821 48.8649 22.3205C49.1912 22.8199 49.3568 23.3872 49.3568 24.0222H47.1732C47.1732 23.5378 47.0201 23.1613 46.7139 22.8902C46.4077 22.6216 45.9785 22.4861 45.4263 22.4861C44.8917 22.4861 44.4776 22.5991 44.1814 22.8249C43.8853 23.0508 43.7372 23.347 43.7372 23.716C43.7372 24.0598 43.9104 24.3484 44.2567 24.5819C44.6031 24.8153 45.1151 25.0336 45.7877 25.2369C47.0301 25.6109 47.9337 26.0727 48.5009 26.6274C49.0682 27.1796 49.3518 27.8698 49.3518 28.6931C49.3518 29.6092 49.0054 30.3295 48.3127 30.849C47.62 31.3711 46.6863 31.6321 45.5117 31.6321C44.696 31.6321 43.9555 31.484 43.2854 31.1854C42.6153 30.8867 42.1057 30.4776 41.7544 29.9605C41.403 29.441 41.2273 28.8411 41.2273 28.1559H43.4184C43.4184 29.3255 44.1162 29.9103 45.5142 29.9103C46.0337 29.9103 46.4378 29.8049 46.729 29.5941C47.0201 29.3782 47.1657 29.0821 47.1657 28.7056Z" fill="white"/>
<path d="M57.5792 26.8935H53.3878V29.7297H58.3071V31.4841H51.2067V20.8899H58.2921V22.6569H53.3878V25.1818H57.5792V26.8935Z" fill="white"/>
<path d="M63.8741 28.8592L66.2761 20.8928H68.7056L65.0161 31.487H62.7396L59.0652 20.8928H61.4872L63.8741 28.8592Z" fill="white"/>
<path d="M76.4485 26.8935H72.257V29.7297H77.1764V31.4841H70.0759V20.8899H77.1613V22.6569H72.257V25.1818H76.4485V26.8935Z" fill="white"/>
<path d="M87.4417 31.4841H85.2581L81.0089 24.5142V31.4841H78.8253V20.8899H81.0089L85.2657 27.8749V20.8899H87.4417V31.4841Z" fill="white"/>
<path d="M99.2959 28.7056C99.2959 28.294 99.1503 27.9777 98.8592 27.7569C98.568 27.536 98.0435 27.3026 97.288 27.0591C96.5325 26.8131 95.9327 26.5722 95.4909 26.3363C94.2887 25.6862 93.6863 24.8103 93.6863 23.7109C93.6863 23.1387 93.847 22.6292 94.1707 22.1799C94.4945 21.7306 94.9563 21.3818 95.5612 21.1283C96.1661 20.8773 96.8438 20.7493 97.5942 20.7493C98.3497 20.7493 99.0248 20.8873 99.6172 21.1609C100.21 21.4345 100.669 21.821 100.995 22.3205C101.321 22.8199 101.487 23.3872 101.487 24.0222H99.3034C99.3034 23.5378 99.1503 23.1613 98.8441 22.8902C98.5379 22.6216 98.1087 22.4861 97.5566 22.4861C97.022 22.4861 96.6078 22.5991 96.3117 22.8249C96.0155 23.0508 95.8674 23.347 95.8674 23.716C95.8674 24.0598 96.0406 24.3484 96.387 24.5819C96.7333 24.8153 97.2453 25.0336 97.918 25.2369C99.1604 25.6109 100.064 26.0727 100.631 26.6274C101.198 27.1796 101.482 27.8698 101.482 28.6931C101.482 29.6092 101.136 30.3295 100.443 30.849C99.7502 31.3711 98.8165 31.6321 97.6419 31.6321C96.8262 31.6321 96.0858 31.484 95.4156 31.1854C94.7455 30.8867 94.236 30.4776 93.8846 29.9605C93.5332 29.441 93.3575 28.8411 93.3575 28.1559H95.5487C95.5487 29.3255 96.2464 29.9103 97.6444 29.9103C98.164 29.9103 98.568 29.8049 98.8592 29.5941C99.1503 29.3782 99.2959 29.0821 99.2959 28.7056Z" fill="white"/>
<path d="M111.311 22.6598H108.065V31.4845H105.882V22.6598H102.679V20.8928H111.308V22.6598H111.311Z" fill="white"/>
<path d="M118.035 29.3005H114.207L113.479 31.4841H111.158L115.101 20.8899H117.124L121.089 31.4841H118.768L118.035 29.3005ZM114.797 27.5336H117.445L116.115 23.5679L114.797 27.5336Z" fill="white"/>
<path d="M126.373 27.6063H124.633V31.4841H122.45V20.8899H126.385C127.638 20.8899 128.601 21.1685 129.282 21.7257C129.962 22.2829 130.301 23.071 130.301 24.09C130.301 24.8128 130.145 25.4152 129.831 25.8971C129.517 26.379 129.043 26.763 128.408 27.0492L130.7 31.3787V31.4816H128.358L126.373 27.6063ZM124.636 25.8394H126.395C126.942 25.8394 127.366 25.6988 127.668 25.4202C127.969 25.1416 128.119 24.7576 128.119 24.2682C128.119 23.7687 127.979 23.3747 127.693 23.0886C127.409 22.8024 126.972 22.6594 126.388 22.6594H124.633V25.8394H124.636Z" fill="white"/>
<path d="M137.828 28.7056C137.828 28.294 137.682 27.9777 137.391 27.7569C137.1 27.536 136.575 27.3026 135.82 27.0591C135.064 26.8131 134.464 26.5722 134.023 26.3363C132.82 25.6862 132.218 24.8103 132.218 23.7109C132.218 23.1387 132.379 22.6292 132.702 22.1799C133.026 21.7306 133.488 21.3818 134.093 21.1283C134.698 20.8773 135.376 20.7493 136.126 20.7493C136.881 20.7493 137.557 20.8873 138.149 21.1609C138.741 21.4345 139.201 21.821 139.527 22.3205C139.853 22.8199 140.019 23.3872 140.019 24.0222H137.835C137.835 23.5378 137.682 23.1613 137.376 22.8902C137.07 22.6216 136.64 22.4861 136.088 22.4861C135.554 22.4861 135.14 22.5991 134.843 22.8249C134.547 23.0508 134.399 23.347 134.399 23.716C134.399 24.0598 134.572 24.3484 134.919 24.5819C135.265 24.8153 135.777 25.0336 136.45 25.2369C137.692 25.6109 138.596 26.0727 139.163 26.6274C139.73 27.1796 140.014 27.8698 140.014 28.6931C140.014 29.6092 139.667 30.3295 138.975 30.849C138.282 31.3711 137.348 31.6321 136.174 31.6321C135.358 31.6321 134.618 31.484 133.947 31.1854C133.277 30.8867 132.768 30.4776 132.416 29.9605C132.065 29.441 131.889 28.8411 131.889 28.1559H134.08C134.08 29.3255 134.778 29.9103 136.176 29.9103C136.696 29.9103 137.1 29.8049 137.391 29.5941C137.682 29.3782 137.828 29.0821 137.828 28.7056Z" fill="white"/>
<path d="M21.0528 30.575L23.2062 29.0189C23.8086 28.5821 23.9291 27.7338 23.4723 27.149C23.1234 26.6997 22.5235 26.5265 21.9864 26.7223L18.4174 28.0199C18.4174 28.0199 17.569 28.4115 16.3542 28.3814L8.07666 39.967L9.71311 38.7773L13.0036 36.3854L21.0101 30.6051L21.0528 30.575Z" fill="#0A3EA5"/>
<path d="M13.1393 27.2072C12.8406 26.9763 12.6072 26.7328 12.429 26.4768L8.03418 40.0001L8.08187 39.9649L16.3595 28.3793C15.4283 28.3567 14.2838 28.0857 13.1393 27.2072Z" fill="#002A93"/>
<path d="M12.0023 23.9967C12.0023 23.9917 12.0048 23.9866 12.0048 23.9841C12.3963 22.1996 13.847 21.291 15.23 20.3272C15.235 20.3247 15.24 20.3197 15.245 20.3172L0.0301174 15.2773H0L12.0023 23.9967Z" fill="#0A3EA5"/>
<path d="M18.8165 17.8252C19.5544 17.3107 20.2948 16.7961 21.0327 16.2816V0.010034L21.0302 0L16.0657 15.2777H0.0300293L15.2449 20.3175C16.4346 19.4867 17.6268 18.656 18.8165 17.8252Z" fill="#002A93"/>
<path d="M23.4952 14.5646C24.1101 14.1354 24.725 13.7062 25.3424 13.277L21.033 0.00976562V16.2813C21.8537 15.7091 22.6744 15.1368 23.4952 14.5646Z" fill="#0A3EA5"/>
<path d="M26.8732 15.2777L16.412 22.7496C15.9351 23.0884 15.792 23.7334 16.0757 24.2455C16.3643 24.765 16.9968 24.9784 17.5439 24.7399C18.6784 24.243 19.838 23.7887 21.0226 23.4323C21.8032 23.1988 22.7896 22.8826 23.6881 22.9152L42.0128 15.2751H26.8732V15.2777Z" fill="#F9901C"/>
<path d="M42.0581 15.2773H42.0129L23.6882 22.9174C24.0421 22.93 24.3835 22.9952 24.6922 23.1433C24.8478 23.2161 24.9934 23.3065 25.1339 23.4069C25.9471 23.9992 26.5846 24.8525 26.9511 25.7837C27.5158 27.2269 27.1544 28.8357 26.1379 29.9551L33.9838 39.8717L29.0594 24.722L42.0581 15.2773Z" fill="#FFA41F"/>
<path d="M34.0264 39.9996L26.3839 34.4478L19.8682 36.1696L25.2293 33.612L24.6646 33.2004L17.4512 36.1294L23.2239 32.1537L25.4703 30.5549C25.7187 30.3793 25.9396 30.1759 26.1379 29.9551L33.9838 39.8716L34.0264 39.9996Z" fill="#F9901C"/>
</svg>
