<svg width="14" height="14" viewBox="0 0 14 14" fill="none" xmlns="http://www.w3.org/2000/svg">
<path d="M7.68533 0.334072C8.17182 0.332205 8.65831 0.337095 9.14467 0.348739L9.274 0.353406C9.42333 0.358739 9.57067 0.365406 9.74867 0.373406C10.458 0.406739 10.942 0.518739 11.3667 0.683406C11.8067 0.852739 12.1773 1.08207 12.548 1.45274C12.8869 1.78581 13.1492 2.1887 13.3167 2.63341C13.4813 3.05807 13.5933 3.54274 13.6267 4.25207C13.6347 4.42941 13.6413 4.57741 13.6467 4.72674L13.6507 4.85607C13.6625 5.3422 13.6676 5.82847 13.666 6.31474L13.6667 6.81207V7.68541C13.6683 8.1719 13.6632 8.65839 13.6513 9.14474L13.6473 9.27407C13.642 9.42341 13.6353 9.57074 13.6273 9.74874C13.594 10.4581 13.4807 10.9421 13.3167 11.3667C13.1498 11.8119 12.8874 12.2151 12.548 12.5481C12.2146 12.887 11.8115 13.1492 11.3667 13.3167C10.942 13.4814 10.458 13.5934 9.74867 13.6267C9.57067 13.6347 9.42333 13.6414 9.274 13.6467L9.14467 13.6507C8.65832 13.6626 8.17182 13.6677 7.68533 13.6661L7.188 13.6667H6.31533C5.82884 13.6684 5.34235 13.6633 4.856 13.6514L4.72667 13.6474C4.56841 13.6417 4.41018 13.635 4.252 13.6274C3.54267 13.5941 3.05867 13.4807 2.63333 13.3167C2.18845 13.1496 1.78549 12.8873 1.45266 12.5481C1.11336 12.2149 0.850814 11.8118 0.683332 11.3667C0.518665 10.9421 0.406665 10.4581 0.373331 9.74874C0.365907 9.59055 0.35924 9.43233 0.353331 9.27407L0.349998 9.14474C0.337707 8.65839 0.332151 8.1719 0.333331 7.68541V6.31474C0.331471 5.82847 0.33636 5.3422 0.347998 4.85607L0.352665 4.72674C0.357998 4.57741 0.364665 4.42941 0.372665 4.25207C0.405998 3.54207 0.517998 3.05874 0.682665 2.63341C0.850247 2.18849 1.11331 1.7857 1.45333 1.45341C1.78593 1.11391 2.18864 0.851121 2.63333 0.683406C3.05867 0.518739 3.542 0.406739 4.252 0.373406L4.72667 0.353406L4.856 0.350072C5.34212 0.337788 5.82839 0.332231 6.31467 0.333406L7.68533 0.334072ZM7 3.66741C6.55834 3.66116 6.11984 3.74275 5.70998 3.90745C5.30013 4.07215 4.9271 4.31666 4.61256 4.62678C4.29803 4.93689 4.04827 5.30643 3.87779 5.71391C3.70731 6.1214 3.61953 6.5587 3.61953 7.00041C3.61953 7.44211 3.70731 7.87941 3.87779 8.2869C4.04827 8.69438 4.29803 9.06392 4.61256 9.37404C4.9271 9.68415 5.30013 9.92866 5.70998 10.0934C6.11984 10.2581 6.55834 10.3397 7 10.3334C7.88405 10.3334 8.7319 9.98222 9.35702 9.35709C9.98214 8.73197 10.3333 7.88413 10.3333 7.00007C10.3333 6.11602 9.98214 5.26817 9.35702 4.64305C8.7319 4.01793 7.88405 3.66741 7 3.66741ZM7 5.00074C7.26567 4.99584 7.52965 5.04394 7.77653 5.14221C8.02341 5.24048 8.24822 5.38697 8.43785 5.5731C8.62748 5.75924 8.77812 5.98129 8.88096 6.2263C8.98381 6.47131 9.0368 6.73435 9.03684 7.00007C9.03689 7.26578 8.98398 7.52884 8.88122 7.77388C8.77846 8.01892 8.62789 8.24103 8.43833 8.42723C8.24876 8.61343 8.02399 8.75999 7.77715 8.85834C7.53031 8.9567 7.26634 9.00488 7.00067 9.00007C6.47023 9.00007 5.96152 8.78936 5.58645 8.41429C5.21138 8.03921 5.00067 7.53051 5.00067 7.00007C5.00067 6.46964 5.21138 5.96093 5.58645 5.58586C5.96152 5.21079 6.47023 5.00007 7.00067 5.00007L7 5.00074ZM10.5 2.66741C10.2849 2.67601 10.0815 2.76751 9.9324 2.92272C9.78328 3.07793 9.69999 3.28483 9.69999 3.50007C9.69999 3.71532 9.78328 3.92221 9.9324 4.07742C10.0815 4.23264 10.2849 4.32413 10.5 4.33274C10.721 4.33274 10.933 4.24494 11.0893 4.08866C11.2455 3.93238 11.3333 3.72042 11.3333 3.49941C11.3333 3.27839 11.2455 3.06643 11.0893 2.91015C10.933 2.75387 10.721 2.66607 10.5 2.66607V2.66741Z" fill="#F9901C"/>
</svg>
