<svg width="12" height="12" viewBox="0 0 12 12" fill="none" xmlns="http://www.w3.org/2000/svg">
<path d="M9.06665 1.88C8.61093 1.35975 8.35979 0.691622 8.35998 0H6.29998V8.26667C6.28409 8.71402 6.09523 9.13775 5.77316 9.44863C5.45109 9.7595 5.02095 9.93327 4.57332 9.93333C3.62665 9.93333 2.83998 9.16 2.83998 8.2C2.83998 7.05333 3.94665 6.19333 5.08665 6.54667V4.44C2.78665 4.13333 0.773315 5.92 0.773315 8.2C0.773315 10.42 2.61332 12 4.56665 12C6.65998 12 8.35998 10.3 8.35998 8.2V4.00667C9.19531 4.60657 10.1982 4.92843 11.2266 4.92667V2.86667C11.2266 2.86667 9.97332 2.92667 9.06665 1.88Z" fill="#F9901C"/>
</svg>
