<svg width="14" height="10" viewBox="0 0 14 10" fill="none" xmlns="http://www.w3.org/2000/svg">
<path d="M5.66665 6.99992L9.12665 4.99992L5.66665 2.99992V6.99992ZM13.3733 1.77992C13.46 2.09325 13.52 2.51325 13.56 3.04659C13.6066 3.57992 13.6266 4.03992 13.6266 4.43992L13.6666 4.99992C13.6666 6.45992 13.56 7.53325 13.3733 8.21992C13.2066 8.81992 12.82 9.20659 12.22 9.37325C11.9066 9.45992 11.3333 9.51992 10.4533 9.55992C9.58665 9.60659 8.79331 9.62659 8.05998 9.62659L6.99998 9.66659C4.20665 9.66659 2.46665 9.55992 1.77998 9.37325C1.17998 9.20659 0.793313 8.81992 0.626646 8.21992C0.53998 7.90659 0.47998 7.48659 0.43998 6.95325C0.393313 6.41992 0.373313 5.95992 0.373313 5.55992L0.333313 4.99992C0.333313 3.53992 0.43998 2.46659 0.626646 1.77992C0.793313 1.17992 1.17998 0.793252 1.77998 0.626585C2.09331 0.539919 2.66665 0.479919 3.54665 0.439919C4.41331 0.393252 5.20665 0.373252 5.93998 0.373252L6.99998 0.333252C9.79331 0.333252 11.5333 0.439919 12.22 0.626585C12.82 0.793252 13.2066 1.17992 13.3733 1.77992Z" fill="white"/>
</svg>
